<?xml version="1.0" standalone="no"?>
<!DOCTYPE svg PUBLIC "-//W3C//DTD SVG 20010904//EN"
 "http://www.w3.org/TR/2001/REC-SVG-20010904/DTD/svg10.dtd">
<svg version="1.0" xmlns="http://www.w3.org/2000/svg"
 width="800.000000pt" height="800.000000pt" viewBox="0 0 800.000000 800.000000"
 preserveAspectRatio="xMidYMid meet">
<metadata>
Created by potrace 1.14, written by Peter Selinger 2001-2017
</metadata>
<g transform="translate(0.000000,800.000000) scale(0.100000,-0.100000)"
fill="#000000" stroke="none">
<path d="M6112 7975 c-8 -17 -17 -22 -34 -19 -13 2 -17 2 -10 -2 6 -3 12 -14
12 -24 0 -10 5 -22 10 -25 18 -11 10 -25 -15 -25 -28 0 -34 -15 -9 -24 8 -3
13 -10 10 -15 -3 -5 5 -4 19 2 13 7 24 19 22 27 -1 9 12 19 33 27 31 11 32 12
10 13 -20 1 -15 6 27 26 65 31 86 23 41 -16 l-32 -28 34 -14 33 -14 -74 -56
c-41 -31 -81 -63 -88 -72 -18 -21 -5 -34 17 -19 9 7 54 35 100 64 45 28 82 56
82 60 0 5 4 9 8 9 11 0 13 -43 2 -50 -5 -3 -7 -16 -3 -28 4 -17 11 -21 27 -17
20 6 20 5 -3 -15 -18 -15 -27 -18 -37 -9 -10 8 -16 4 -28 -19 -8 -15 -21 -34
-30 -41 -8 -7 -12 -19 -9 -27 5 -13 8 -12 24 2 11 9 19 25 19 35 0 10 5 21 12
25 8 5 9 2 5 -9 -9 -25 -3 -21 42 23 22 22 38 40 35 40 -2 0 0 9 6 20 9 16 8
20 -5 20 -16 0 -39 45 -30 60 6 9 94 60 104 60 4 0 7 -12 6 -27 0 -22 5 -29
23 -31 19 -3 21 -6 11 -18 -10 -12 -9 -13 6 -7 15 5 17 3 12 -11 -6 -14 -4
-17 10 -11 21 8 22 8 46 6 9 0 17 -7 17 -14 0 -18 60 -88 70 -82 9 5 32 -50
49 -120 9 -32 8 -41 -4 -48 -9 -5 -13 -18 -11 -33 6 -29 5 -29 -70 -5 -32 11
-102 31 -153 45 -118 33 -137 53 -80 84 17 9 44 27 59 40 15 12 35 22 44 22 9
0 16 6 16 14 0 22 31 29 45 10 11 -15 12 -15 17 4 4 15 2 19 -8 15 -19 -7 -18
11 1 27 8 7 12 16 10 21 -6 10 -37 0 -47 -15 -4 -6 -12 -5 -22 3 -10 9 -28 11
-50 7 -19 -4 -36 -3 -38 1 -3 4 -3 3 -2 -4 2 -7 -2 -15 -8 -19 -7 -5 -3 -10
10 -15 12 -5 22 -15 22 -23 0 -19 -50 -58 -67 -52 -7 3 -13 -1 -13 -8 0 -19
-34 -46 -58 -46 -30 0 -17 -28 16 -37 51 -12 -9 -20 -145 -19 -72 1 -129 -2
-127 -6 3 -5 -3 -8 -13 -8 -14 0 -15 -2 -4 -9 7 -5 96 -9 197 -9 174 -1 191
-3 336 -37 104 -24 158 -42 169 -55 16 -19 59 -214 59 -270 0 -17 6 -45 13
-63 17 -38 29 -93 58 -252 11 -66 30 -159 40 -206 10 -47 21 -108 24 -134 4
-27 8 -52 10 -55 5 -9 58 -318 60 -355 1 -16 6 -59 10 -95 12 -96 13 -213 4
-320 -4 -52 -10 -165 -14 -250 -7 -211 -13 -260 -31 -260 -19 0 -18 -36 1 -44
17 -6 20 -41 5 -51 -5 -3 -7 -19 -3 -35 6 -35 7 -35 -41 -15 -45 19 -45 10 0
-35 35 -35 36 -36 31 -103 -2 -37 -1 -69 2 -72 4 -2 4 -32 0 -67 -18 -163 -30
-251 -33 -257 -3 -4 -7 -38 -10 -76 -9 -101 -14 -213 -9 -192 9 36 23 15 24
-35 2 -89 -2 -121 -17 -135 -20 -20 -30 -66 -16 -71 8 -2 7 -8 -3 -19 -18 -17
-11 -33 14 -33 9 0 22 -5 28 -11 8 -8 17 -8 32 0 15 9 27 9 41 1 24 -13 26
-28 4 -37 -9 -3 -30 -19 -47 -34 l-31 -29 23 -21 c18 -17 20 -24 9 -31 -10 -8
-9 -9 5 -4 9 3 17 1 17 -5 0 -6 4 -8 9 -5 12 8 44 -31 36 -43 -3 -6 2 -22 13
-36 17 -21 21 -23 32 -10 15 18 4 75 -15 75 -7 0 -18 7 -26 16 -17 21 5 36 38
23 22 -8 23 -7 18 31 -3 21 -1 42 5 45 6 4 5 12 -5 21 -11 11 -12 20 -3 38 8
19 7 31 -6 57 -20 40 -20 43 -1 35 13 -5 15 31 17 282 1 158 1 364 0 457 -2
199 17 767 28 810 6 27 8 25 14 -25 4 -30 20 -104 36 -165 15 -60 53 -222 85
-360 31 -137 76 -331 100 -430 24 -99 46 -196 50 -215 15 -79 77 -357 87 -390
6 -19 16 -38 22 -42 7 -5 6 -8 -3 -8 -18 0 -12 -35 45 -270 35 -145 43 -190
34 -208 -14 -32 -13 -74 7 -146 15 -59 15 -64 -2 -104 -10 -22 -22 -39 -26
-36 -4 2 -13 -5 -19 -16 -6 -11 -16 -20 -23 -20 -14 0 -19 -6 -84 -109 -45
-70 -48 -72 -57 -50 -11 26 -44 59 -57 59 -5 0 -11 -11 -15 -25 -3 -14 -9 -25
-13 -25 -17 0 -116 -224 -135 -305 -15 -61 21 -3 71 115 51 119 96 200 113
200 5 0 13 -15 18 -32 7 -29 0 -50 -56 -168 -35 -74 -103 -221 -150 -327 -48
-106 -90 -189 -94 -185 -4 4 -9 16 -11 27 -1 11 -6 26 -11 33 -4 7 -3 19 3 26
10 12 -3 67 -34 140 -6 14 -5 17 3 12 22 -14 12 29 -17 76 -23 37 -27 48 -15
52 22 9 16 39 -17 84 -17 23 -25 42 -19 42 16 0 4 49 -18 73 -10 11 -12 21 -7
25 18 13 10 44 -18 72 -16 15 -24 30 -18 31 10 4 -2 28 -46 89 -11 14 -13 21
-5 16 11 -7 12 -4 3 12 -6 11 -16 23 -23 25 -11 4 -10 7 0 14 10 7 8 15 -8 34
-12 13 -17 25 -11 27 12 4 -10 43 -46 83 -13 14 -23 30 -21 35 1 5 -3 19 -10
30 -6 12 -9 23 -7 26 3 3 -6 15 -20 28 -14 13 -25 31 -25 39 0 9 -9 22 -20 29
-12 7 -19 16 -16 20 2 4 -11 8 -30 8 -32 0 -33 -1 -17 -18 9 -10 12 -18 8 -18
-5 0 -4 -5 2 -11 6 -6 9 -18 6 -25 -3 -8 -1 -14 4 -14 6 0 15 -12 22 -26 11
-24 10 -26 -8 -21 -18 4 -19 2 -11 -14 6 -10 19 -23 29 -28 24 -13 35 -42 20
-52 -9 -5 -6 -15 10 -35 13 -16 18 -30 12 -32 -7 -2 -8 -10 -1 -22 7 -13 6
-20 -2 -22 -7 -3 -3 -15 12 -35 13 -19 20 -38 16 -48 -4 -11 6 -32 29 -59 38
-47 44 -61 20 -52 -11 4 -15 -2 -16 -22 -2 -35 -2 -34 7 -56 6 -16 4 -18 -10
-13 -15 6 -17 4 -11 -10 4 -10 7 -27 7 -38 -1 -10 4 -26 11 -34 10 -12 9 -14
-5 -8 -24 9 -33 -11 -15 -31 21 -23 39 -71 31 -84 -4 -6 -9 -6 -14 2 -5 7 -6
-11 -4 -39 l3 -52 -29 6 c-29 6 -29 6 -20 -27 6 -18 19 -40 29 -49 22 -18 18
-31 -7 -22 -11 5 -13 3 -7 -6 6 -10 2 -11 -16 -6 -13 4 -30 12 -37 18 -19 15
-27 0 -13 -29 l12 -27 -41 7 c-32 5 -40 3 -40 -10 0 -11 -6 -14 -20 -10 -11 3
-29 8 -39 11 -26 8 -34 -8 -23 -47 21 -77 -20 -70 -77 13 -23 33 -41 64 -41
68 0 5 -16 18 -36 30 -36 21 -38 41 -4 41 30 0 35 21 9 42 l-24 19 28 -7 c20
-5 27 -2 27 9 0 17 -44 31 -63 21 -7 -4 -9 -4 -5 1 4 4 1 20 -7 36 -8 15 -15
37 -15 49 0 11 -7 23 -17 27 -14 5 -13 8 6 15 16 5 21 13 17 24 -4 10 0 22 10
28 17 13 18 24 11 134 -3 40 -10 79 -16 86 -6 7 -8 16 -4 19 3 4 1 7 -6 7 -7
0 -9 5 -6 10 4 6 -4 19 -17 30 -14 12 -16 18 -7 14 23 -8 22 42 -1 83 -10 17
-17 44 -15 60 1 16 -5 38 -16 51 -12 15 -17 36 -15 60 2 20 -1 44 -5 52 -38
76 -39 101 -3 240 40 154 58 190 128 258 92 89 150 205 173 345 l17 106 -57
113 c-32 62 -72 135 -89 161 -31 48 -32 49 -20 106 24 116 10 258 -48 491 -16
63 -34 146 -40 184 -6 38 -15 76 -20 85 -4 9 -18 46 -30 81 -54 162 -203 434
-314 575 -18 22 -54 72 -80 112 -27 39 -66 90 -87 112 -22 22 -39 44 -39 50 0
5 -11 19 -25 32 -31 30 -32 43 -2 35 16 -4 27 1 37 14 8 11 26 20 39 20 23 0
24 1 6 14 -17 12 -16 14 11 20 28 7 28 8 10 22 -20 14 -20 14 0 14 10 0 28 7
38 15 11 8 14 15 7 15 -7 0 -10 4 -6 9 3 5 -3 11 -12 13 -13 2 -3 12 32 33
l50 30 -34 5 -34 5 39 38 c36 35 37 37 14 37 -23 0 -23 0 -4 15 18 14 17 15
-11 9 l-30 -7 20 24 c11 13 25 27 30 31 14 11 -3 10 -45 -2 l-35 -10 47 45 47
45 -32 0 -32 0 25 20 25 20 -27 -10 c-32 -11 -35 -8 -12 14 14 15 13 16 -12
16 -25 0 -26 1 -12 18 8 9 18 25 22 36 6 16 3 18 -25 12 -31 -6 -31 -5 -16 12
21 23 21 32 1 32 -14 0 -15 2 -3 17 12 15 12 16 -1 8 -13 -7 -13 -6 -2 7 10
13 10 17 -3 22 -8 3 -23 3 -32 -1 -17 -6 -17 -5 -1 14 18 19 17 19 -15 15
l-32 -5 20 23 c16 19 17 22 4 17 -18 -6 -21 23 -4 35 21 16 -21 7 -43 -8 -32
-22 -40 -9 -14 19 26 27 28 39 7 31 -11 -5 -13 -2 -8 12 6 15 2 15 -31 -6
l-38 -23 12 23 c11 21 10 22 -6 16 -17 -7 -17 -6 -1 12 28 31 -5 36 -34 6 -34
-36 -44 -29 -19 14 20 33 20 35 3 20 -27 -25 -34 -22 -27 7 7 28 -7 33 -26 10
-16 -19 -30 -19 -30 0 0 8 -3 14 -7 14 -21 -3 -22 4 -7 34 l16 32 -36 -34
c-28 -27 -36 -31 -36 -17 0 13 -5 16 -21 11 -19 -6 -21 -4 -16 14 6 24 -5 28
-23 6 -9 -10 -17 -12 -30 -5 -9 5 -21 6 -25 2 -12 -12 -30 -8 -36 8 -5 11 -10
9 -19 -12 -15 -32 -31 -37 -23 -8 4 16 1 20 -16 17 -11 -2 -28 -12 -36 -23
-14 -19 -14 -19 -15 1 0 17 -2 17 -10 5 -8 -13 -10 -12 -10 3 0 27 -17 20 -32
-13 -14 -32 -28 -40 -28 -15 0 35 -39 6 -61 -45 -5 -12 -9 -9 -17 10 -8 18
-11 20 -11 8 -1 -10 -7 -18 -15 -18 -15 0 -26 -20 -27 -53 -1 -20 -2 -20 -12
4 -10 22 -14 24 -24 13 -7 -7 -18 -33 -25 -59 -12 -43 -13 -44 -25 -23 -11 21
-12 19 -13 -27 -1 -46 -2 -49 -15 -31 -15 20 -15 20 -16 0 0 -10 -2 -36 -3
-56 -1 -20 -4 -40 -8 -43 -9 -9 1 -35 21 -58 8 -10 49 -42 91 -72 80 -57 106
-80 175 -163 48 -57 62 -102 25 -82 -20 11 -20 9 -16 -47 3 -34 0 -63 -6 -71
-9 -10 -6 -20 11 -40 45 -57 48 -71 16 -98 -21 -18 -26 -27 -17 -33 7 -4 22
-24 32 -45 l20 -36 -21 -30 c-19 -25 -20 -31 -8 -46 16 -19 21 -84 6 -84 -5 0
-4 -7 4 -16 15 -18 19 -53 8 -60 -5 -3 -17 0 -28 5 -23 13 -37 61 -21 71 9 5
8 16 -4 38 -18 36 -20 59 -6 64 7 2 5 19 -5 47 -8 24 -15 65 -15 92 0 26 -4
50 -8 53 -5 3 -15 31 -22 63 -7 32 -22 74 -34 93 -11 19 -19 41 -18 48 2 7 -6
24 -17 38 -11 14 -17 32 -14 41 5 13 2 15 -11 10 -10 -4 -15 -3 -11 3 3 6 -1
10 -9 10 -21 0 -20 -19 2 -37 9 -8 11 -12 5 -8 -18 9 -16 0 3 -19 14 -15 14
-16 -1 -16 -15 0 -15 -1 0 -16 10 -11 15 -29 13 -53 -3 -31 -7 -36 -28 -37
-14 0 -32 -4 -41 -8 -21 -9 -51 -5 -62 9 -6 6 -10 5 -14 -3 -3 -9 -9 -10 -18
-2 -10 8 -12 -8 -8 -83 3 -76 1 -97 -12 -107 -20 -16 -19 -47 1 -58 19 -10 11
-32 -12 -32 -9 0 -14 -11 -14 -30 0 -16 -5 -30 -10 -30 -6 0 -8 -15 -4 -38 4
-29 2 -41 -11 -52 -15 -12 -19 -12 -31 5 -18 24 -18 45 1 73 13 17 13 26 5 43
-12 22 -6 84 12 132 9 23 8 34 -6 58 -16 27 -16 32 -3 52 10 16 11 26 4 39 -8
12 -7 24 3 43 12 22 11 30 -4 61 -16 34 -16 38 0 61 15 24 15 27 -5 54 -12 15
-21 41 -21 57 0 17 -9 40 -21 53 -11 13 -18 19 -15 13 13 -27 16 -74 4 -74 -7
0 -26 -11 -42 -23 l-29 -24 31 -18 c17 -11 33 -24 36 -31 7 -18 -32 -54 -58
-54 -13 0 -29 -6 -36 -14 -9 -12 -4 -19 32 -37 40 -20 57 -35 58 -50 0 -8 -51
-33 -70 -34 -25 -2 -90 -35 -90 -45 0 -6 -8 -10 -17 -10 -32 -1 -64 -62 -35
-66 44 -5 81 -44 59 -62 -12 -9 -63 -9 -72 0 -8 8 -53 -3 -64 -16 -5 -6 -12
-27 -16 -47 -6 -35 -5 -37 32 -55 30 -15 38 -25 40 -48 2 -23 0 -26 -10 -15
-35 41 -67 62 -79 52 -7 -6 -22 -12 -32 -14 -26 -5 149 -99 184 -99 14 0 48
-14 76 -31 46 -30 48 -32 27 -42 -17 -7 -28 -4 -55 15 -25 18 -45 24 -80 23
-27 -1 -51 -5 -55 -8 -3 -4 -12 -2 -19 3 -13 12 -98 -5 -123 -24 -12 -9 -13
-7 -7 9 15 38 18 55 10 55 -7 0 -25 -24 -81 -109 -2 -2 -16 -5 -32 -6 -33 -2
-33 1 6 74 13 24 23 51 23 60 0 10 6 23 13 30 10 10 8 15 -7 27 -11 8 -15 14
-10 14 6 0 16 -6 23 -12 10 -11 22 -2 61 42 32 36 47 60 43 70 -14 31 -4 95
17 109 11 7 20 22 20 32 0 10 9 23 21 29 20 11 20 12 3 32 -17 18 -17 21 -2
48 9 16 14 38 11 48 -3 13 5 28 22 44 21 20 24 26 12 31 -8 3 -18 20 -22 37
-5 25 -2 37 14 54 20 21 21 56 1 56 -17 0 -39 -37 -33 -58 4 -16 1 -22 -11
-22 -9 0 -16 -7 -16 -15 0 -8 -6 -15 -13 -15 -7 0 -17 -8 -24 -19 -9 -15 -8
-21 9 -36 21 -17 21 -17 -8 -41 -16 -13 -32 -23 -36 -24 -5 0 -8 -9 -8 -20 0
-11 -7 -21 -15 -21 -32 -3 -36 -4 -43 -15 -10 -16 -48 -34 -71 -34 -18 0 -51
-33 -51 -52 0 -3 10 -10 23 -13 134 -38 173 -83 85 -99 -22 -4 -39 -2 -43 4
-4 7 -12 7 -25 0 -10 -6 -21 -6 -24 -2 -5 8 -22 11 -101 15 -52 3 -42 -26 17
-54 29 -13 55 -27 56 -31 2 -5 9 -8 16 -8 15 0 66 -38 66 -49 0 -3 -14 -12
-31 -18 -27 -11 -31 -10 -41 12 l-11 24 -36 -20 c-19 -10 -40 -19 -46 -19 -17
0 -51 -43 -58 -72 -11 -44 -34 -59 -75 -52 -21 4 -43 11 -50 17 -9 7 -18 4
-32 -8 -18 -16 -20 -16 -20 -2 0 25 -17 21 -36 -9 -11 -16 -20 -22 -27 -15
-16 16 2 79 38 126 19 25 35 49 35 53 0 5 11 18 25 30 13 12 27 33 31 47 3 14
12 26 20 26 8 1 19 3 24 4 6 1 20 3 32 4 12 0 19 4 15 7 -3 4 0 21 7 39 8 18
12 43 9 56 -3 19 3 28 26 42 28 17 31 22 25 56 -5 34 -2 42 30 73 20 19 36 40
36 45 0 6 6 16 14 22 8 7 11 22 8 38 -4 21 2 33 32 59 26 23 36 40 36 61 -1
27 -1 27 -15 9 -8 -11 -18 -17 -21 -13 -13 12 -36 -24 -30 -47 4 -18 0 -26
-20 -37 -25 -13 -58 -52 -79 -93 -5 -11 -28 -25 -50 -33 -22 -7 -53 -24 -69
-38 l-30 -25 35 -36 34 -35 -22 -37 c-14 -24 -28 -37 -42 -37 -12 0 -26 -6
-30 -14 -6 -9 -15 -11 -27 -6 -11 4 -39 9 -64 10 l-45 3 55 -19 c30 -11 66
-28 80 -39 l25 -20 -42 -35 c-42 -35 -123 -153 -123 -178 0 -7 -6 -21 -13 -32
-13 -17 -14 -17 -29 4 -14 19 -19 21 -37 11 -18 -9 -25 -7 -45 14 -23 22 -27
23 -51 10 -34 -18 -55 -17 -79 1 -28 21 -45 19 -58 -9 -17 -38 -38 -41 -45 -6
-5 28 -7 29 -20 13 -11 -14 -16 -15 -20 -5 -4 10 -9 9 -24 -4 -11 -10 -19 -12
-19 -6 0 19 -34 14 -53 -8 -10 -13 -22 -18 -30 -13 -18 11 -49 4 -73 -18 -21
-20 -21 -20 -32 8 -18 48 -15 64 27 152 9 18 22 36 29 38 7 3 20 22 28 42 8
20 30 46 49 59 44 28 45 44 3 29 -57 -20 -136 -113 -192 -222 -39 -77 -56
-101 -73 -103 -16 -2 -23 2 -23 12 0 20 -10 20 -39 0 -13 -10 -44 -19 -69 -21
-26 -2 -57 -11 -70 -19 -30 -20 -41 -7 -43 46 l-1 35 -15 -35 c-18 -42 -40
-59 -75 -60 -17 0 -31 -8 -38 -20 -8 -15 -17 -19 -35 -14 -15 4 -25 2 -25 -5
0 -17 -41 -13 -62 6 -14 12 -18 13 -18 3 0 -11 -3 -11 -12 -2 -8 8 -8 15 2 27
7 8 8 15 3 15 -6 0 -19 -12 -29 -27 -38 -53 -53 -63 -93 -63 -25 0 -41 -5 -45
-15 -3 -10 -19 -15 -42 -15 -23 0 -41 -6 -49 -17 -11 -15 -15 -15 -29 -4 -14
12 -19 11 -34 -3 -10 -9 -23 -16 -29 -16 -6 0 -16 -7 -24 -16 -7 -8 -21 -13
-30 -11 -10 3 -26 -4 -35 -14 -9 -10 -30 -19 -45 -19 -20 0 -32 -7 -41 -25
-14 -26 -27 -23 -46 10 l-11 20 -1 -20 c-1 -22 -32 -65 -48 -65 -5 0 -15 -7
-23 -16 -7 -8 -21 -13 -30 -11 -13 3 -21 -4 -28 -24 -12 -36 -43 -38 -61 -4
-15 28 -30 24 -30 -9 0 -12 -14 -41 -31 -64 l-31 -42 -29 21 c-21 14 -29 17
-29 7 0 -7 -9 -21 -20 -31 -14 -12 -20 -29 -20 -57 0 -30 -4 -40 -16 -40 -11
0 -14 -6 -9 -20 6 -18 3 -19 -26 -13 -31 6 -32 5 -25 -21 8 -32 -8 -99 -28
-116 -11 -8 -20 -9 -35 0 -26 14 -28 -7 -6 -51 9 -16 13 -34 10 -39 -3 -6 -3
-16 2 -22 14 -23 13 -54 -1 -73 -14 -19 -15 -19 -33 -2 -11 9 -23 17 -26 17
-16 0 6 -66 35 -109 24 -36 28 -49 19 -63 -19 -31 -12 -47 44 -105 32 -33 53
-63 50 -71 -3 -7 -9 -10 -15 -7 -11 7 -12 -11 -2 -37 7 -17 41 -59 106 -134
26 -30 33 -42 20 -38 -13 5 -8 -5 16 -31 19 -20 46 -49 60 -64 14 -15 32 -36
41 -47 9 -10 46 -48 82 -83 68 -65 101 -76 93 -29 -2 13 5 34 15 47 25 31 24
41 -2 41 -21 0 -20 1 5 21 21 17 24 24 16 40 -8 15 -7 21 4 25 8 3 13 13 12
22 -2 9 5 25 16 36 11 12 14 22 8 26 -6 4 -2 15 10 28 14 14 16 22 8 22 -8 1
-6 6 6 15 10 7 15 18 12 24 -4 5 -2 12 3 16 5 3 8 14 6 24 -2 13 4 21 17 24
13 4 19 11 15 21 -4 9 1 22 9 30 8 9 14 19 14 23 0 4 8 9 19 11 13 2 17 9 14
23 -3 11 0 19 7 19 7 0 10 7 7 14 -4 9 2 17 14 21 14 5 18 12 14 25 -5 15 -2
17 14 13 17 -4 19 -1 15 21 -4 24 -2 26 14 17 17 -9 18 -6 16 31 -2 28 1 37 8
30 19 -19 51 22 46 59 -4 27 -3 29 7 16 16 -22 25 -21 25 2 0 11 7 26 15 35 8
8 15 20 15 26 0 6 5 8 10 5 5 -3 10 1 10 9 0 9 7 16 15 16 11 0 14 7 9 24 -4
19 -2 24 13 23 14 -2 18 5 18 30 0 30 1 31 17 16 17 -15 18 -14 18 10 0 17 5
27 15 27 8 0 15 6 15 14 0 8 11 23 25 34 14 11 25 30 25 42 0 19 2 20 15 10
10 -8 15 -9 15 -2 0 15 60 83 69 78 4 -3 13 10 21 27 7 17 15 26 18 19 5 -17
22 -15 22 4 0 8 5 12 11 9 5 -4 21 5 35 20 13 15 30 25 36 23 6 -2 22 7 35 20
13 12 28 20 33 17 6 -4 19 4 30 17 17 20 21 21 30 8 9 -13 12 -13 21 3 5 9 17
17 26 17 9 0 25 7 35 16 16 15 18 15 24 1 6 -16 19 -15 63 6 19 9 25 9 28 -1
4 -9 13 -6 34 9 25 18 34 19 61 10 31 -11 47 -5 71 24 5 6 7 -2 4 -17 -4 -24
-2 -26 15 -17 10 5 23 7 28 4 5 -3 11 -1 15 5 3 5 15 15 25 20 18 10 19 8 14
-20 -8 -37 2 -38 46 -5 42 31 44 31 36 -1 -6 -23 -4 -25 11 -19 47 19 56 19
48 -4 -4 -13 -2 -21 5 -21 7 0 9 -8 5 -20 -4 -11 -2 -20 4 -20 6 0 11 3 11 8
0 4 13 16 27 26 24 18 26 18 20 2 -5 -13 -3 -17 7 -13 17 7 28 -16 20 -38 -9
-21 10 -19 30 4 10 11 23 18 30 15 6 -2 22 5 36 18 l23 22 -6 -22 c-4 -12 -10
-31 -13 -42 -8 -24 18 -27 56 -5 31 18 51 19 45 3 -8 -20 73 -60 96 -47 15 7
19 6 19 -6 0 -8 7 -15 15 -15 8 0 15 -7 15 -16 0 -11 6 -14 21 -9 15 5 22 2
26 -14 3 -12 9 -21 14 -21 5 0 9 -12 9 -26 0 -25 1 -26 45 -19 44 6 46 6 41
-19 -5 -26 24 -62 39 -49 4 5 5 -1 0 -12 -17 -44 -18 -58 -6 -51 19 12 58 -2
64 -23 3 -14 11 -18 26 -14 17 4 20 2 15 -11 -4 -11 1 -22 12 -31 11 -8 15
-15 10 -15 -22 0 19 -30 43 -30 19 0 22 -3 12 -9 -11 -7 -7 -15 19 -40 18 -16
37 -28 41 -26 4 3 6 -6 5 -19 0 -13 -5 -24 -10 -23 -5 1 -11 -4 -14 -12 -4
-11 3 -13 31 -8 42 7 52 -1 32 -23 -18 -20 -9 -52 14 -49 46 4 54 0 48 -28 -7
-36 13 -63 46 -63 19 0 25 -4 21 -14 -3 -8 1 -19 8 -25 47 -38 67 -59 62 -64
-4 -3 6 -9 21 -13 14 -3 30 -17 35 -29 5 -14 20 -25 39 -28 22 -5 29 -11 25
-22 -4 -9 1 -17 11 -21 9 -4 14 -13 11 -20 -3 -9 2 -14 14 -14 11 0 20 -4 20
-10 0 -5 11 -10 24 -10 37 0 61 -11 45 -21 -10 -6 -6 -11 14 -18 15 -6 27 -17
27 -25 0 -10 6 -13 17 -9 11 4 14 3 9 -5 -4 -7 -1 -12 8 -12 8 0 27 -6 42 -12
l28 -13 -30 -6 -29 -6 48 -22 c26 -12 53 -31 60 -42 6 -10 19 -19 29 -19 9 0
20 -4 23 -10 3 -5 13 -10 22 -10 8 0 29 -6 46 -14 18 -7 51 -21 75 -31 60 -26
79 -50 22 -30 -23 8 -52 15 -64 15 -20 -1 -20 -2 5 -20 14 -11 70 -42 125 -69
54 -27 109 -59 120 -70 12 -11 25 -17 28 -14 3 4 6 -1 6 -11 0 -10 5 -14 12
-10 7 4 8 3 4 -4 -4 -7 -3 -12 2 -12 6 0 12 -6 15 -14 3 -7 -20 2 -51 20 -33
20 -69 34 -89 34 -18 0 -33 5 -33 11 0 6 -6 9 -12 6 -7 -2 -26 7 -41 19 -16
13 -36 24 -46 24 -9 0 -22 5 -28 11 -13 13 -28 -5 -18 -21 10 -16 86 -50 112
-50 13 0 23 -4 23 -10 0 -5 8 -10 18 -10 9 0 37 -14 61 -30 24 -17 63 -35 85
-41 64 -17 116 -41 110 -50 -3 -5 -10 -9 -15 -9 -6 0 -8 4 -5 8 2 4 -5 8 -16
8 -18 0 -17 -3 8 -23 16 -13 25 -23 20 -23 -18 0 19 -32 77 -66 52 -31 96 -64
84 -64 -2 0 -23 7 -46 15 -22 8 -41 11 -41 7 0 -4 28 -29 63 -57 34 -27 70
-57 80 -67 18 -18 18 -19 -10 -13 -15 4 -35 9 -43 12 -8 3 -32 9 -52 13 -47 9
-52 -11 -10 -37 24 -16 67 -47 100 -74 6 -5 12 -8 12 -5 0 3 30 -23 66 -57 36
-34 61 -63 55 -65 -6 -2 -8 -8 -5 -14 4 -5 -4 -4 -17 3 -13 7 -27 13 -31 14
-3 0 -10 4 -15 9 -5 6 -2 6 7 1 13 -8 13 -7 1 9 -11 13 -16 14 -22 4 -8 -12
-13 -4 -10 14 0 4 -6 5 -14 2 -8 -4 -12 -11 -8 -17 3 -6 1 -7 -6 -3 -9 6 -9
11 -1 21 9 11 7 12 -9 8 -17 -4 -19 -9 -10 -24 5 -11 7 -24 4 -29 -3 -6 -1
-10 4 -10 6 0 11 -5 11 -11 0 -7 11 -22 25 -35 14 -13 25 -29 25 -36 0 -10 -2
-10 -9 1 -5 8 -16 11 -24 8 -8 -3 -20 0 -27 6 -10 9 -11 7 -5 -11 3 -12 25
-41 48 -63 27 -26 37 -42 30 -46 -18 -7 -16 -40 3 -47 9 -3 14 -13 10 -21 -3
-8 0 -17 6 -21 7 -5 8 -2 3 7 -4 8 1 5 12 -6 11 -11 18 -24 15 -30 -3 -5 -7
-4 -10 3 -2 7 -9 12 -16 12 -7 0 -41 26 -74 58 -39 37 -77 64 -104 72 -24 7
-64 24 -91 36 -44 22 -47 22 -37 4 6 -10 15 -22 20 -25 6 -3 10 -11 10 -16 0
-6 -5 -7 -11 -4 -6 4 22 -41 62 -99 39 -59 69 -110 65 -113 -9 -10 -75 30 -81
48 -3 9 -13 25 -23 36 -30 35 -150 132 -155 127 -3 -3 5 -27 18 -52 18 -36 39
-57 87 -87 69 -44 138 -102 138 -117 0 -11 -27 4 -60 34 -49 44 -65 56 -87 62
l-23 7 19 -43 c10 -24 21 -56 25 -73 l6 -30 -22 27 c-13 15 -45 59 -73 98 -27
38 -56 70 -62 70 -7 0 -13 4 -13 8 0 11 -90 61 -130 72 -46 13 -36 -4 30 -55
54 -41 110 -107 110 -127 0 -16 -23 -7 -63 25 -67 54 -106 73 -202 102 -49 15
-109 34 -133 42 l-43 16 31 14 c18 7 50 13 72 13 50 0 47 21 -5 34 -56 14 -44
26 21 20 82 -7 160 -24 216 -46 27 -10 51 -17 54 -14 2 3 -16 26 -42 51 -25
26 -46 52 -46 58 0 7 -9 18 -20 25 -12 7 -18 18 -14 24 5 7 0 9 -14 6 -12 -4
-20 -1 -19 4 2 11 -14 17 -97 37 -60 14 -73 7 -17 -10 59 -17 43 -23 -24 -8
-36 8 -51 15 -43 21 8 5 2 8 -17 8 -36 0 -60 14 -51 29 4 6 0 11 -8 11 -9 0
-16 5 -16 10 0 6 12 10 26 10 21 0 24 4 19 20 -4 12 -2 20 5 20 6 0 8 5 5 10
-3 6 -1 10 6 10 10 0 10 3 1 12 -10 10 -15 10 -22 -2 -8 -12 -10 -12 -16 3 -3
9 -11 17 -18 17 -23 0 -88 22 -82 27 9 9 -43 33 -70 33 -27 0 -28 3 -14 29 8
16 4 19 -39 24 -27 3 -74 3 -105 0 -31 -3 -56 -2 -56 3 0 5 41 22 90 37 50 16
90 31 90 34 0 5 -75 -1 -167 -13 -56 -8 -54 6 4 35 40 19 45 24 30 33 -21 11
-13 28 13 28 10 0 21 3 23 8 8 12 -65 13 -109 2 -22 -7 -56 -10 -75 -8 l-34 4
28 13 c15 8 27 20 27 28 0 10 -7 11 -27 6 -44 -12 -86 -9 -91 5 -2 7 5 16 17
19 12 3 21 11 21 18 0 9 -11 12 -40 8 -43 -6 -56 9 -17 22 17 6 10 9 -33 14
-67 8 -117 29 -123 53 -4 13 2 20 18 24 13 3 28 4 32 1 5 -3 15 -2 23 4 11 6
8 9 -12 9 -15 0 -30 5 -33 10 -3 6 -12 10 -20 10 -8 0 -29 14 -47 30 -18 17
-38 30 -45 30 -7 0 -23 11 -36 24 -21 20 -22 25 -8 34 26 16 3 26 -35 14 -30
-9 -33 -8 -23 4 9 11 8 14 -5 14 -9 0 -16 -4 -16 -10 0 -5 -4 -10 -10 -10 -18
0 -11 18 9 25 11 3 22 12 25 20 4 11 0 12 -20 5 -14 -6 -35 -10 -47 -9 -20 1
-20 2 3 9 22 7 20 8 -15 10 -32 1 -36 3 -20 10 l20 9 -20 1 c-18 1 -18 2 3 10
27 11 70 50 55 50 -23 0 -43 -13 -43 -27 0 -13 -3 -13 -15 -3 -8 7 -28 10 -44
8 -28 -4 -29 -3 -24 24 6 32 1 35 -22 12 -12 -13 -19 -14 -28 -5 -9 9 -8 14 3
21 12 7 8 10 -13 10 -16 0 -26 -4 -23 -8 2 -4 -4 -8 -14 -8 -10 0 -16 4 -14 8
3 4 0 8 -5 8 -6 0 -11 10 -11 21 0 17 -4 20 -22 16 -14 -4 -26 0 -34 11 -12
16 -13 15 -14 -5 0 -13 -4 -23 -9 -23 -7 0 -8 15 -2 54 0 5 4 6 7 3 4 -3 16 5
26 19 31 39 15 39 -26 1 -24 -23 -34 -40 -30 -51 3 -9 2 -16 -4 -16 -6 0 -12
5 -14 11 -2 6 -16 -1 -31 -15 -16 -14 -31 -26 -35 -26 -4 0 -23 -23 -42 -52
-34 -50 -35 -50 -38 -23 -3 25 -4 26 -16 9 -23 -34 -35 -116 -40 -274 -3 -85
-8 -171 -11 -190 -5 -28 -4 -32 5 -20 9 13 11 12 6 -5 -17 -73 -18 -85 -1 -85
13 0 15 -6 9 -32 -7 -35 -31 -59 -50 -51 -6 2 -17 15 -24 29 -16 29 -25 30
-39 7 -8 -14 -10 -14 -11 -3 0 11 -3 11 -12 2 -16 -16 -28 -15 -28 3 0 7 8 19
18 24 9 6 12 11 5 11 -6 0 -9 9 -6 20 3 11 0 20 -6 20 -6 0 -11 -4 -11 -8 0
-4 -14 -23 -30 -42 -25 -29 -30 -31 -25 -12 4 12 2 22 -4 22 -5 0 -18 3 -28 7
-16 6 -16 5 -4 -10 7 -9 9 -17 3 -17 -12 0 -22 24 -22 51 0 29 -17 14 -25 -21
-4 -20 -11 -28 -18 -23 -7 4 -15 8 -19 9 -5 1 -9 2 -10 3 -2 2 -15 4 -30 6
-24 3 -28 0 -28 -22 0 -21 -2 -24 -15 -13 -8 7 -15 20 -15 29 0 10 -7 26 -16
37 -14 18 -15 16 -10 -26 5 -45 5 -45 -14 -22 -18 22 -31 29 -29 15 3 -19 -3
-47 -8 -36 -3 10 -8 9 -20 -2 -8 -8 -25 -15 -39 -15 -13 0 -24 -5 -24 -12 0
-9 -3 -9 -12 0 -18 18 -38 14 -38 -8 0 -10 -7 -23 -17 -28 -14 -9 -14 -11 6
-22 18 -9 29 -9 52 0 39 16 79 16 90 -1 6 -10 9 -7 9 11 0 32 17 15 35 -36 8
-22 14 -32 15 -23 0 9 10 28 21 43 21 27 21 27 36 6 14 -20 14 -20 39 -1 20
16 31 18 50 11 15 -6 41 -6 66 -1 40 9 68 6 68 -9 0 -4 30 -10 67 -13 37 -4
69 -10 72 -14 3 -5 28 -19 55 -32 28 -15 68 -48 95 -80 25 -30 69 -80 96 -112
73 -83 186 -225 216 -271 15 -22 29 -38 32 -36 9 5 67 -42 67 -55 0 -7 18 -23
40 -37 22 -14 40 -28 40 -32 0 -5 6 -8 14 -8 9 0 12 -7 9 -19 -3 -11 2 -21 11
-24 9 -4 16 -13 16 -21 0 -7 9 -16 20 -19 11 -3 24 -17 30 -31 5 -14 13 -26
18 -26 4 0 6 -16 4 -35 -3 -22 -10 -35 -18 -35 -8 0 -17 -7 -20 -15 -7 -17
-40 -20 -49 -5 -3 5 0 10 7 10 10 0 10 2 -1 9 -7 5 -15 19 -16 32 -1 13 -3 26
-4 29 -3 14 -64 41 -93 41 -28 0 -150 -50 -123 -51 5 0 -10 -12 -33 -27 -24
-16 -40 -33 -37 -40 2 -7 -2 -13 -11 -13 -8 0 -29 -13 -47 -30 -18 -16 -38
-30 -44 -30 -7 0 -13 -4 -13 -9 0 -5 -9 -13 -20 -16 -11 -3 -27 -13 -35 -22
-9 -8 -22 -16 -29 -17 -8 -1 -21 -8 -30 -15 -8 -7 -21 -9 -27 -5 -7 4 -9 3 -6
-3 7 -11 -61 -35 -75 -27 -5 3 -15 0 -24 -6 -17 -15 -230 -18 -244 -4 -22 23
-14 37 23 40 23 2 37 -1 37 -9 0 -7 4 -6 10 3 6 10 10 11 10 3 0 -7 5 -13 11
-13 5 0 7 5 3 11 -4 8 3 9 25 4 24 -5 31 -3 31 9 0 10 12 16 41 18 l40 3 -38
20 c-21 11 -40 22 -43 25 -3 4 -22 16 -42 29 -45 27 -46 30 -13 23 28 -5 33 5
10 22 -9 6 -17 23 -19 38 -1 15 -8 34 -16 43 -18 21 -4 32 17 13 10 -8 26 -18
35 -21 15 -5 16 -3 6 18 -13 28 -43 41 -61 27 -18 -14 -60 -22 -85 -15 -22 5
-21 7 15 31 21 14 44 34 51 43 7 10 18 24 26 31 51 52 45 165 -8 145 -8 -3
-45 4 -82 15 -71 21 -173 20 -216 -3 -10 -6 -53 -12 -94 -14 -42 -2 -78 -6
-81 -8 -2 -3 -19 -1 -36 5 -77 24 -155 1 -177 -51 -23 -57 24 -153 100 -203
29 -19 46 -37 43 -45 -4 -9 0 -11 13 -6 11 4 15 3 11 -4 -4 -6 -1 -13 5 -16 7
-2 -1 -4 -19 -3 -17 1 -29 4 -27 7 8 13 -42 15 -66 2 -14 -7 -20 -13 -14 -13
18 0 23 -34 7 -49 -17 -15 -13 -53 5 -57 7 -1 8 0 2 3 -15 7 -12 23 5 23 15 0
19 -10 16 -41 -2 -16 31 -33 57 -30 7 1 15 -5 18 -14 7 -18 64 -21 64 -3 0 6
7 3 15 -8 14 -19 14 -19 15 1 0 16 2 17 10 5 18 -29 -7 -37 -109 -35 -56 1
-106 7 -113 13 -9 7 -19 8 -28 2 -24 -16 -31 -11 -19 12 10 18 9 20 -6 14 -12
-4 -18 0 -22 14 -3 11 -12 20 -19 20 -8 0 -14 9 -14 21 0 15 -5 19 -18 15 -12
-4 -19 -1 -19 8 0 9 5 12 11 9 6 -3 5 0 -1 8 -7 7 -13 25 -13 40 0 15 -6 31
-13 37 -10 8 -13 43 -11 130 1 109 7 143 38 227 6 17 11 32 12 35 1 11 55 118
87 175 101 180 127 228 127 235 0 4 9 19 21 34 11 14 16 26 10 26 -6 0 -11 5
-11 11 0 6 7 9 15 5 12 -4 13 -2 7 12 -5 9 -8 28 -7 42 4 40 -63 301 -105 410
-20 52 -44 127 -57 178 -3 12 -19 32 -35 44 l-30 21 12 -24 13 -24 -27 24
c-21 20 -26 22 -26 8 0 -9 -3 -16 -7 -15 -18 4 -61 -25 -56 -38 3 -8 1 -14 -5
-14 -5 0 -22 -22 -36 -50 -14 -28 -23 -50 -19 -50 3 0 -4 -11 -16 -24 -13 -13
-24 -39 -25 -60 -2 -19 -8 -42 -15 -49 -6 -8 -8 -16 -5 -20 3 -3 0 -15 -6 -28
-7 -12 -13 -41 -14 -65 -1 -26 -9 -51 -20 -63 -18 -20 -18 -21 -1 -21 16 0 16
-2 3 -22 -8 -13 -14 -33 -13 -46 1 -12 -4 -27 -12 -33 -16 -14 -18 -33 -2 -23
8 4 8 0 0 -15 -7 -11 -16 -21 -22 -21 -6 0 -7 -5 -4 -11 4 -6 -3 -21 -16 -35
-22 -24 -14 -35 9 -12 9 9 12 9 12 1 0 -7 -13 -21 -30 -33 -16 -11 -27 -27
-24 -34 6 -14 -65 -64 -130 -90 -46 -19 -42 -33 5 -17 61 21 64 10 4 -14 -33
-14 -62 -25 -65 -25 -3 0 2 -5 10 -10 11 -7 11 -10 2 -10 -7 0 -11 -4 -7 -9 3
-5 -4 -13 -16 -16 -19 -6 -20 -7 -2 -20 17 -13 17 -14 1 -19 -50 -17 -53 -20
-23 -24 l30 -4 -35 -13 c-27 -11 -30 -14 -12 -14 20 -1 28 -15 23 -43 0 -5 4
-8 10 -8 8 0 8 -4 0 -14 -9 -11 -9 -15 1 -19 7 -3 -1 -11 -21 -19 l-33 -15 22
-16 22 -15 -21 -7 c-30 -9 -26 -22 11 -29 29 -6 30 -7 15 -24 -25 -27 -22 -45
5 -36 20 6 21 5 9 -10 -11 -14 -11 -16 1 -16 17 0 20 -29 4 -49 -9 -11 -5 -12
22 -7 30 7 41 -1 25 -18 -4 -4 -8 -19 -9 -34 -1 -22 3 -27 23 -28 31 -2 36 -7
36 -40 0 -17 -10 -35 -23 -46 -27 -22 -24 -22 28 -4 38 14 40 13 45 -6 5 -17
11 -19 41 -14 37 7 57 -7 37 -27 -6 -6 -11 -15 -11 -19 0 -11 53 2 61 15 4 5
9 5 13 -1 3 -6 2 -13 -3 -16 -5 -3 -7 -24 -5 -46 3 -31 0 -38 -11 -34 -10 4
-13 -2 -13 -23 1 -16 -6 -42 -15 -59 -15 -29 -14 -44 3 -44 3 0 13 13 23 29
21 37 75 67 83 47 3 -7 -4 -29 -15 -47 -42 -68 -46 -80 -32 -88 9 -6 8 -11 -4
-21 -17 -14 -20 -40 -5 -40 5 0 25 14 43 30 19 17 42 30 51 30 13 0 10 -10
-15 -56 -23 -44 -27 -59 -18 -70 9 -11 8 -18 -3 -32 -30 -34 -31 -46 -4 -24
16 12 34 22 41 22 6 0 20 9 30 20 10 11 22 20 26 20 8 0 -22 -50 -73 -124 -14
-20 -17 -31 -9 -35 7 -5 3 -15 -14 -29 -14 -12 -25 -28 -25 -36 0 -23 50 6
117 67 47 43 53 46 34 19 -33 -47 -109 -120 -132 -127 -10 -4 -19 -11 -19 -17
0 -6 -33 -43 -73 -81 -44 -43 -67 -71 -59 -74 7 -3 28 11 47 30 35 36 88 77
100 77 15 0 -70 -89 -121 -125 -35 -26 -50 -41 -40 -43 9 -2 16 -6 16 -8 0
-12 -25 -51 -51 -79 -35 -36 -38 -59 -8 -50 19 6 18 2 -11 -39 -18 -25 -37
-46 -42 -46 -4 0 -8 -5 -8 -11 0 -5 4 -7 10 -4 5 3 10 2 10 -4 0 -6 -12 -18
-27 -26 -16 -9 -19 -13 -8 -9 11 4 54 9 95 11 l75 3 -49 -19 c-48 -20 -86 -51
-86 -71 0 -5 5 -10 10 -10 6 0 10 -11 10 -25 0 -14 5 -25 11 -25 7 0 8 -11 4
-31 -4 -18 -3 -29 2 -26 5 3 9 -9 10 -27 1 -19 7 -44 14 -57 17 -31 17 -61 2
-77 -19 -20 -16 -43 4 -35 11 4 14 3 9 -6 -4 -6 -10 -33 -12 -59 -3 -26 -9
-73 -15 -105 -10 -57 -10 -57 23 -87 18 -17 40 -30 50 -30 15 0 15 3 2 28 -23
44 -16 48 22 11 34 -33 37 -34 111 -32 42 2 78 5 81 8 3 3 -3 14 -13 25 -22
24 -13 26 21 4 13 -9 27 -14 30 -11 9 9 -35 76 -73 111 -38 34 -57 106 -33
121 17 10 50 -29 50 -59 0 -42 109 -200 126 -183 4 4 -9 24 -29 45 -20 21 -37
41 -37 45 0 13 32 -9 100 -68 69 -60 86 -59 49 2 l-22 38 49 -47 c44 -41 51
-45 63 -31 12 14 9 20 -30 51 -82 67 -118 109 -125 148 -9 48 5 89 31 89 17 0
21 -9 25 -67 5 -66 6 -69 55 -112 28 -25 67 -57 87 -72 36 -25 39 -26 74 -12
l36 15 -27 21 c-15 12 -25 22 -23 22 19 0 110 -49 142 -76 22 -19 43 -34 47
-34 4 0 10 19 14 43 8 51 35 140 41 134 3 -3 -3 -34 -12 -71 -20 -82 -16 -100
23 -84 15 6 42 24 58 39 37 33 121 84 155 94 20 5 18 2 -9 -15 -50 -32 -131
-101 -131 -113 0 -10 58 -5 95 8 14 5 16 4 6 -3 -16 -11 -8 -17 38 -27 33 -7
34 -6 27 20 -4 15 -9 41 -12 59 -4 26 -2 24 13 -13 17 -43 43 -66 43 -40 0 8
5 6 13 -5 10 -14 28 -18 85 -19 41 0 77 4 84 11 8 8 15 6 27 -9 18 -21 100
-41 87 -21 -12 19 6 14 31 -10 l23 -21 0 21 c0 15 6 20 20 19 11 -1 20 -5 20
-10 0 -5 6 -7 14 -4 8 3 17 1 20 -6 3 -7 3 22 0 63 -3 41 -1 86 4 100 l9 25 6
-30 c3 -16 9 -59 12 -95 8 -85 18 -102 42 -73 19 21 19 21 32 2 9 -16 15 -18
26 -9 8 7 16 7 19 1 3 -5 15 -7 26 -4 12 3 22 -1 26 -11 8 -21 24 -21 24 1 0
15 2 14 15 -3 8 -10 15 -15 15 -10 0 5 7 3 15 -4 10 -9 15 -9 15 -1 0 6 5 11
10 11 6 0 10 -6 10 -13 0 -10 19 -13 74 -13 l74 1 -37 55 c-51 75 -56 84 -43
76 6 -3 32 -36 59 -72 26 -35 57 -67 70 -70 32 -9 128 3 152 18 11 7 22 19 25
28 2 8 4 3 5 -11 1 -35 33 -43 64 -19 17 13 27 16 34 9 13 -13 18 2 28 74 9
71 27 59 19 -13 -4 -33 -4 -60 -1 -60 3 0 37 51 76 113 75 119 159 232 168
224 6 -7 -17 -51 -98 -183 -100 -166 -98 -162 -53 -128 l38 29 -18 -27 c-35
-54 31 -20 118 61 34 31 91 81 129 110 37 29 64 57 61 62 -3 5 -35 28 -70 50
-35 23 -64 43 -64 45 0 7 94 -43 161 -85 35 -22 65 -39 66 -37 2 1 -4 42 -12
89 -16 95 -60 223 -100 294 -14 25 -23 48 -21 50 7 7 63 -95 87 -157 23 -60
59 -219 59 -262 0 -20 12 -35 48 -61 43 -32 82 -71 175 -175 l27 -31 -32 4
c-24 3 -29 2 -18 -5 8 -5 11 -10 7 -10 -4 0 -60 53 -125 119 -64 65 -129 126
-144 136 l-28 17 -105 -106 c-59 -58 -104 -110 -100 -116 3 -5 -2 -21 -11 -35
-15 -23 -15 -25 0 -25 8 0 41 14 71 30 67 37 74 37 39 5 -35 -32 -26 -32 46 5
101 51 255 52 275 3 3 -9 3 -18 1 -21 -3 -2 -45 -11 -93 -18 -114 -18 -133
-23 -133 -33 0 -5 21 -6 46 -3 28 3 49 1 53 -6 4 -7 29 -6 81 4 125 25 222 22
319 -9 46 -15 86 -25 89 -22 3 2 -6 9 -19 14 -21 8 -22 10 -6 16 19 8 50 -12
41 -26 -5 -9 23 -25 31 -17 9 9 -37 133 -85 233 -96 197 -236 333 -444 431
-78 37 -46 35 49 -3 147 -59 265 -150 343 -267 50 -74 109 -210 133 -303 7
-29 16 -53 20 -53 4 0 10 18 14 41 11 64 79 190 134 247 52 54 85 71 59 30
-71 -111 -125 -209 -157 -288 l-39 -94 -149 3 c-162 2 -294 -9 -448 -38 -133
-26 -255 -31 -255 -11 0 9 34 27 110 58 21 9 12 11 -48 11 -46 1 -71 5 -67 11
8 12 11 13 -52 -4 -28 -8 -54 -11 -57 -9 -3 3 -19 -8 -35 -26 -28 -30 -61 -41
-61 -21 0 6 3 9 8 8 18 -5 50 15 56 34 3 12 4 23 3 25 -2 1 -19 -9 -39 -23
-34 -24 -39 -25 -72 -13 -32 12 -38 11 -58 -8 -33 -29 -73 -26 -306 27 -23 6
-62 10 -87 10 -35 0 -45 4 -45 16 0 12 -6 15 -22 10 -13 -3 -27 -6 -31 -6 -5
0 -5 -4 -2 -10 8 -14 -61 -13 -87 1 -15 8 -19 8 -13 -1 5 -7 1 -11 -11 -10
-11 1 -32 1 -49 0 -30 -2 -30 -2 -5 -10 29 -9 -111 -4 -144 5 -12 4 3 -7 32
-24 29 -16 65 -32 80 -34 15 -3 -2 -3 -38 -1 -36 2 -94 13 -130 24 -89 27 -96
25 -53 -16 l38 -35 270 2 c241 3 276 1 323 -15 55 -19 97 -19 272 3 36 4 117
4 180 -1 261 -20 661 -12 760 16 30 9 56 16 57 16 1 0 0 -7 -4 -16 -3 -8 -12
-13 -19 -10 -17 7 -44 -3 -44 -15 0 -5 11 -14 25 -19 15 -6 35 -31 55 -69 16
-33 30 -63 30 -67 0 -5 -33 -3 -217 12 -52 4 -73 2 -73 -6 0 -7 8 -9 21 -5 14
5 19 3 15 -3 -7 -11 52 -32 90 -32 20 0 64 -38 64 -54 0 -5 -9 -6 -20 -3 -11
3 -20 1 -20 -5 0 -6 -9 -8 -20 -5 -11 3 -23 1 -26 -4 -3 -6 -16 -4 -30 5 -27
18 -38 20 -29 6 10 -16 -7 -12 -27 7 -19 17 -19 16 -13 -9 6 -25 5 -27 -17
-21 -39 10 -268 12 -262 1 3 -5 -6 -6 -23 -2 -37 9 -34 9 -65 -4 -16 -7 -134
-14 -290 -18 -145 -3 -279 -9 -298 -13 -19 -4 -125 -3 -235 1 -140 5 -210 3
-232 -5 -39 -13 -203 7 -215 26 -4 7 -29 12 -60 11 -29 -1 -219 -5 -423 -9
-406 -9 -617 -2 -640 21 -7 8 -26 14 -42 14 -40 0 -62 15 -45 32 6 6 12 18 12
26 0 10 -4 10 -22 -2 -28 -20 -38 -20 -38 -1 0 8 -4 15 -9 15 -5 0 -14 -7 -21
-15 -15 -18 -31 -20 -26 -3 3 7 7 27 11 43 l7 30 -28 -25 -27 -25 7 60 6 60
-27 -47 c-14 -27 -32 -48 -38 -48 -8 0 -15 29 -19 80 -3 44 -15 106 -24 137
l-18 58 125 -3 c90 -2 121 -6 111 -14 -12 -8 -11 -8 5 -3 159 53 246 65 330
45 22 -5 42 -6 45 -1 3 4 16 15 30 24 l24 17 -24 0 c-14 0 -62 8 -107 17 -64
13 -87 14 -105 5 -23 -11 -32 -11 -170 3 -64 6 -82 5 -102 -9 -28 -18 -100
-12 -74 6 9 7 5 8 -12 4 -14 -3 -32 -6 -40 -6 -13 0 -13 -1 0 -11 11 -8 4 -9
-27 -6 -24 3 -43 1 -43 -4 0 -5 -12 -1 -27 8 -15 10 -24 12 -20 5 6 -9 -3 -12
-37 -12 -31 0 -48 -5 -54 -16 -8 -14 -20 -15 -114 -5 -125 14 -346 0 -405 -24
-21 -9 -59 -30 -85 -47 -27 -16 -55 -28 -63 -24 -20 7 -77 -13 -96 -35 -14
-16 -18 -16 -23 -4 -3 8 -16 15 -30 15 -13 0 -62 18 -107 40 -46 22 -109 45
-141 52 -50 10 -58 15 -58 34 0 26 73 242 100 294 10 19 23 55 30 80 7 25 35
95 62 155 43 94 74 185 62 185 -2 0 -32 -25 -66 -56 -81 -72 -130 -148 -234
-363 -96 -199 -115 -212 -89 -62 8 50 27 141 41 202 14 61 23 116 21 122 -5
15 -43 -132 -63 -243 -10 -52 -20 -98 -24 -103 -4 -4 -19 14 -34 40 -15 27
-25 40 -22 30 4 -11 2 -16 -5 -11 -6 3 -9 15 -6 25 3 11 2 17 -2 14 -5 -2 -16
23 -25 57 -13 45 -20 58 -28 50 -9 -9 -8 -19 1 -39 18 -38 81 -193 81 -199 0
-2 -6 -4 -12 -4 -7 0 -21 19 -30 42 l-18 41 -20 -23 c-16 -18 -20 -20 -20 -7
0 10 -6 14 -14 11 -27 -10 -26 35 2 61 l26 24 -25 -6 c-13 -4 -29 -13 -34 -20
-14 -19 -48 -6 -40 16 4 10 -2 8 -18 -7 -33 -31 -50 -29 -45 7 2 17 1 28 -3
25 -12 -7 -20 41 -70 421 -16 127 -28 242 -26 258 2 15 0 27 -3 27 -4 0 -11
27 -14 61 -7 55 -5 65 19 100 24 37 45 50 45 29 0 -5 7 -10 15 -10 18 0 20
-41 3 -58 -14 -14 -16 -98 -3 -111 7 -7 11 -2 13 17 2 36 22 72 39 72 7 0 13
-3 14 -7 0 -5 2 -27 3 -49 2 -39 24 -76 43 -74 4 0 13 -36 18 -80 6 -44 13
-80 18 -80 16 2 67 -35 73 -52 6 -20 34 -25 34 -6 0 6 3 8 7 5 3 -4 12 1 19
11 10 13 17 15 31 6 27 -16 29 -52 4 -56 -19 -3 -19 -4 4 -15 14 -6 23 -7 19
-2 -3 5 2 6 10 3 9 -3 13 -11 9 -18 -3 -6 7 0 23 14 16 14 30 25 30 25 1 0 4
10 8 21 5 17 3 22 -10 20 -9 0 -19 5 -22 13 -3 9 0 12 9 9 8 -3 20 1 28 9 12
13 11 14 -8 8 -15 -4 -21 -2 -21 8 0 24 126 90 160 85 16 -2 27 -1 24 4 -3 4
1 8 10 8 8 0 22 3 32 7 15 5 14 3 -3 -14 -11 -11 -28 -23 -38 -26 -31 -13 -10
-18 23 -6 18 6 30 15 27 20 -3 4 14 13 37 20 35 9 57 8 117 -5 72 -15 151 -55
151 -76 0 -6 5 -10 12 -10 19 0 89 -53 81 -61 -14 -13 -58 -15 -56 -3 2 11
-51 29 -72 25 -5 -2 -1 7 9 18 18 20 18 21 -10 31 -52 20 -130 38 -190 44 -51
5 -53 4 -18 -4 46 -9 139 -53 149 -70 4 -6 11 -8 16 -5 5 3 6 -1 3 -9 -8 -20
-12 -20 -65 3 -47 21 -166 47 -175 39 -3 -3 2 -13 11 -21 8 -9 15 -27 15 -41
0 -31 20 -34 40 -6 8 11 23 20 32 20 15 0 17 -5 12 -25 -5 -21 -3 -24 16 -20
12 2 28 9 36 16 23 19 35 6 20 -23 -9 -16 -11 -30 -5 -33 5 -4 9 -1 9 5 0 6 5
8 12 4 7 -4 8 -3 4 4 -4 7 -1 12 8 12 8 0 22 7 31 16 11 12 19 13 29 5 7 -6
16 -8 19 -4 13 12 7 -23 -5 -36 -11 -11 -10 -13 2 -7 8 4 6 0 -4 -8 -28 -22
-12 -32 19 -12 15 10 23 22 19 29 -4 7 -4 9 0 5 5 -4 25 2 44 13 20 10 47 19
60 19 13 0 20 4 17 10 -6 10 1 14 48 24 16 4 27 13 27 23 0 9 3 13 6 10 4 -3
14 -2 23 3 20 10 46 -3 37 -19 -4 -6 -4 -11 1 -10 20 3 23 -2 12 -22 -8 -15
-8 -19 0 -15 15 10 14 -7 -1 -24 -7 -8 -3 -6 10 4 22 19 31 43 11 31 -6 -4 -9
-1 -7 7 3 13 -77 138 -87 138 -3 0 0 -12 5 -27 l10 -28 -21 25 c-14 17 -22 21
-26 13 -8 -22 -25 -14 -18 8 4 12 1 32 -6 46 -11 20 -11 26 1 33 8 5 11 12 8
16 -10 9 -41 -24 -33 -36 3 -5 2 -10 -3 -10 -14 0 -54 -79 -47 -91 4 -5 1 -9
-5 -9 -7 0 -10 -7 -7 -15 5 -12 2 -12 -19 -3 -15 7 -20 14 -13 18 8 6 8 9 0
14 -6 4 -16 4 -22 0 -7 -4 -10 4 -7 22 2 23 -1 29 -17 30 -53 4 -51 4 -35 14
8 5 10 10 4 10 -6 0 -11 6 -12 13 -1 6 -3 24 -6 39 -7 43 4 69 24 63 9 -3 23
1 29 9 10 12 7 20 -18 45 -16 16 -39 32 -51 36 -13 4 -20 13 -18 23 3 17 -75
102 -93 102 -5 0 -9 9 -9 20 0 13 -7 20 -20 20 -11 0 -23 7 -26 15 -4 8 -14
15 -23 15 -14 0 -14 2 -1 10 17 11 9 14 -52 25 -37 6 -52 29 -26 37 9 3 8 9
-4 21 -18 19 -48 23 -48 7 0 -5 -9 -10 -20 -10 -11 0 -20 4 -20 9 0 5 -15 14
-32 22 -18 7 -45 21 -60 31 -14 10 -35 18 -46 18 -11 0 -22 4 -24 10 -1 5 -20
16 -41 25 -37 15 -38 15 -62 -11 -13 -14 -32 -24 -42 -22 -10 1 -23 -1 -30 -5
-6 -4 -19 0 -28 9 -12 12 -13 19 -4 30 15 18 24 18 42 -1 13 -12 15 -11 19 14
4 28 3 28 -34 23 -31 -4 -38 -1 -38 12 0 11 -8 16 -27 15 -25 0 -26 -1 -8 -9
14 -7 9 -8 -19 -3 -27 4 -41 2 -48 -8 -11 -15 -9 -6 8 35 6 17 4 18 -17 11
-13 -4 -52 -10 -86 -12 l-63 -5 0 -1254 0 -1254 4000 0 4000 0 0 3273 c0 2794
-2 3285 -15 3362 -8 50 -25 155 -39 235 -25 142 -31 191 -19 161 4 -10 15 -3
39 25 l34 39 0 191 c0 177 -1 192 -20 209 -21 19 -18 37 5 28 13 -4 15 28 15
236 0 203 -2 241 -14 241 -8 0 -18 -9 -21 -20 -3 -11 -10 -20 -15 -20 -5 0
-12 9 -15 20 -4 13 -15 20 -32 20 -18 0 -24 -4 -20 -15 8 -19 -8 -28 -34 -20
-12 4 -18 12 -15 21 5 12 -79 14 -568 14 l-573 0 57 -153 c32 -84 74 -201 94
-260 34 -99 66 -154 80 -139 3 3 14 -13 24 -36 10 -25 22 -40 30 -37 11 4 14
-5 16 -52 1 -10 5 -21 9 -24 12 -9 13 -61 1 -66 -14 -5 -24 29 -24 85 0 23 -4
42 -9 42 -4 0 -8 -25 -7 -55 0 -30 4 -55 9 -55 4 0 7 -7 7 -15 0 -9 9 -15 24
-15 13 0 27 -8 31 -17 5 -15 40 -132 112 -378 28 -96 51 -185 48 -185 -2 0 2
-15 9 -32 8 -18 16 -55 20 -83 6 -49 6 -49 -8 -20 l-14 30 4 -45 c1 -25 3 -55
3 -68 1 -12 6 -21 12 -20 7 2 11 -14 11 -42 1 -25 7 -57 15 -73 7 -15 22 -67
32 -116 10 -48 29 -122 41 -162 12 -41 24 -80 26 -87 2 -8 13 -10 31 -7 l28 6
-27 -15 -26 -16 25 -67 c15 -38 35 -79 45 -92 10 -13 18 -30 18 -38 0 -8 5
-11 12 -7 6 4 8 3 4 -4 -3 -5 -1 -12 4 -14 15 -5 26 -78 12 -78 -35 0 -61 21
-68 55 -3 19 -8 35 -10 35 -18 0 -93 -52 -138 -94 -58 -57 -81 -107 -62 -138
16 -26 29 -22 48 13 13 22 24 30 40 27 18 -2 23 -9 21 -31 -2 -33 9 -35 30 -4
12 17 18 20 28 10 7 -7 14 -23 16 -35 2 -13 9 -41 17 -63 14 -40 53 -169 82
-275 8 -30 19 -65 24 -76 6 -15 4 -26 -8 -38 -16 -16 -16 -17 2 -14 16 2 25
-10 45 -60 21 -54 27 -61 37 -48 10 15 12 14 17 -4 3 -11 1 -18 -4 -14 -5 3
-19 -2 -31 -12 -15 -10 -17 -14 -6 -11 10 4 20 2 23 -3 4 -6 -4 -10 -17 -10
-17 0 -19 -3 -9 -9 8 -5 11 -16 8 -24 -3 -8 -1 -19 5 -25 6 -6 5 -24 -3 -53
-6 -24 -12 -53 -13 -64 0 -11 -8 -20 -16 -20 -15 0 -30 -13 -30 -28 0 -5 12 0
28 11 15 11 42 23 59 27 29 6 32 4 26 -12 -6 -16 -5 -16 10 -4 15 12 17 11 17
-7 0 -12 -9 -28 -21 -36 -13 -9 -18 -19 -14 -27 5 -8 4 -10 -4 -5 -6 4 -28 -9
-51 -33 -23 -23 -35 -43 -29 -46 5 -4 7 -15 4 -26 -4 -13 -2 -19 9 -19 12 0
16 -11 16 -45 0 -52 12 -57 37 -15 21 36 27 37 41 6 8 -17 7 -27 -1 -36 -9
-10 -7 -11 13 -5 14 4 39 13 55 20 42 18 76 25 69 14 -3 -5 0 -9 5 -9 6 0 11
-3 11 -8 0 -8 -6 -11 -93 -53 -55 -27 -97 -58 -97 -71 0 -4 37 6 82 23 98 36
122 33 47 -5 -79 -41 -122 -75 -111 -89 15 -19 33 -78 47 -147 7 -36 24 -120
38 -188 26 -124 26 -152 2 -152 -14 0 -27 31 -74 175 l-29 90 5 -55 c5 -68 41
-242 59 -291 7 -20 11 -39 8 -41 -2 -3 5 -13 17 -24 21 -19 21 -19 38 2 23 29
61 41 61 20 0 -9 -4 -16 -8 -16 -5 0 -17 -18 -27 -39 -17 -38 -17 -45 0 -158
10 -65 19 -130 21 -145 2 -15 -3 -31 -12 -39 -21 -17 -45 -78 -37 -93 4 -7 3
-8 -4 -1 -13 12 -57 232 -77 380 -8 61 -26 155 -39 210 -14 55 -42 177 -61
270 -49 237 -110 497 -204 870 -108 432 -152 616 -153 651 -1 16 -8 43 -15 60
-8 18 -23 87 -34 155 -25 147 -83 436 -150 749 -27 124 -65 306 -85 405 -20
99 -57 272 -81 385 -25 113 -63 288 -84 390 -43 203 -59 260 -72 260 -4 0 -8
5 -8 11 0 6 -12 49 -26 95 l-25 84 -238 -1 -238 -1 -11 -23z m266 -1 c12 -4
22 -10 22 -14 0 -15 -106 -70 -134 -70 -33 0 -33 7 5 53 31 38 55 45 107 31z
m1522 -44 c0 -10 -52 -40 -70 -40 -20 0 -10 19 18 34 32 18 52 20 52 6z
m-1420 -150 c0 -5 -8 -10 -17 -10 -15 0 -16 2 -3 10 19 12 20 12 20 0z m1500
-64 c0 -2 -7 -6 -15 -10 -8 -3 -15 -1 -15 4 0 6 7 10 15 10 8 0 15 -2 15 -4z
m-111 -21 c-10 -10 -22 -13 -34 -9 -18 7 -18 8 1 15 10 4 26 8 34 8 12 1 12
-1 -1 -14z m-1609 -19 c0 -2 -8 -10 -17 -17 -16 -13 -17 -12 -4 4 13 16 21 21
21 13z m1668 -85 c3 -8 -1 -12 -9 -9 -7 2 -15 10 -17 17 -3 8 1 12 9 9 7 -2
15 -10 17 -17z m-58 -134 c0 -18 2 -19 10 -7 8 12 10 9 10 -12 0 -20 -4 -26
-15 -22 -8 4 -15 11 -15 18 0 6 -3 22 -7 35 -4 17 -3 22 5 17 7 -4 12 -17 12
-29z m-820 -107 c15 -11 30 -74 20 -84 -12 -12 -20 -5 -26 28 -2 14 -9 37 -14
51 -6 15 -10 36 -9 48 0 18 2 17 11 -8 6 -16 14 -32 18 -35z m894 -9 c22 -19
46 -64 46 -86 0 -11 -7 -14 -27 -10 -81 14 -79 12 -90 70 -5 30 -8 57 -5 59 6
6 53 -15 76 -33z m-854 -98 c0 -15 27 -112 51 -188 6 -16 12 -39 13 -50 2 -11
8 -31 15 -44 7 -13 11 -32 8 -42 -3 -10 -1 -19 4 -19 6 0 9 -6 8 -12 -4 -30 2
-48 16 -48 9 0 12 -6 9 -15 -11 -27 -20 -16 -38 43 -10 31 -40 126 -67 211
-28 85 -48 160 -45 168 8 19 26 16 26 -4z m875 -73 c3 -4 -8 -31 -24 -59 l-28
-52 -7 47 c-10 79 -10 81 24 76 17 -2 32 -8 35 -12z m-2580 -656 c35 -51 43
-69 33 -75 -7 -5 -17 -7 -23 -6 -12 4 -95 138 -95 155 0 26 38 -7 85 -74z
m1852 -66 c-3 -8 -6 -5 -6 6 -1 11 2 17 5 13 3 -3 4 -12 1 -19z m-2427 -20 c0
-5 -9 -8 -20 -8 -18 0 -19 3 -8 20 9 14 14 16 20 7 4 -7 8 -15 8 -19z m-337
-48 c-3 -11 -9 -17 -15 -14 -5 3 -4 12 3 20 16 19 18 18 12 -6z m971 -5 c10
-7 15 -19 11 -25 -5 -8 -13 -5 -26 9 -30 32 -21 43 15 16z m-774 -354 c95 -57
144 -95 170 -130 19 -28 13 -25 -51 23 -125 93 -174 119 -199 106 -11 -6 -25
-22 -30 -35 -11 -30 -89 -88 -108 -80 -10 4 -12 0 -8 -11 3 -8 -6 -35 -20 -59
-25 -43 -91 -115 -105 -115 -19 0 31 90 71 129 29 29 36 39 18 28 -34 -21 -38
-21 -38 1 0 25 108 131 118 115 5 -8 13 -9 22 -3 12 7 12 12 2 22 -9 9 -7 17
11 36 28 30 59 25 147 -27z m2790 -306 c0 -8 -2 -15 -4 -15 -2 0 -6 7 -10 15
-3 8 -1 15 4 15 6 0 10 -7 10 -15z m-2740 -105 c-6 -11 -16 -20 -22 -20 -6 0
-3 9 7 20 10 11 20 20 22 20 2 0 -1 -9 -7 -20z m-72 -37 c-2 -10 -10 -17 -16
-15 -7 1 -12 -3 -12 -9 0 -5 -5 -7 -11 -4 -7 5 -4 14 7 26 21 24 37 25 32 2z
m2877 -50 c-4 -10 -8 -23 -8 -30 0 -7 -5 -10 -10 -6 -5 3 -6 -4 -2 -17 5 -15
2 -25 -6 -31 -23 -14 -34 -10 -13 5 10 8 16 17 13 20 -3 4 -23 -9 -44 -29 -22
-19 -43 -35 -47 -35 -37 0 10 97 59 124 40 22 67 21 58 -1z m15 -123 c0 -5 -5
-10 -11 -10 -5 0 -7 5 -4 10 3 6 8 10 11 10 2 0 4 -4 4 -10z m-71 -137 c6 -21
11 -46 11 -56 0 -11 4 -15 12 -11 8 5 9 2 4 -11 -3 -10 0 -27 7 -39 14 -21 42
-123 51 -186 8 -51 -5 -19 -58 150 -60 193 -59 190 -47 190 5 0 15 -17 20 -37z
m81 -45 c0 -4 9 -10 20 -13 12 -4 20 -15 20 -27 0 -12 7 -30 17 -40 11 -12 12
-18 4 -18 -8 0 -7 -5 3 -16 17 -16 22 -60 7 -66 -4 -1 0 -22 10 -46 16 -37 22
-42 40 -37 14 5 19 3 15 -3 -3 -6 0 -12 6 -15 10 -3 10 -8 -1 -21 -8 -9 -20
-15 -28 -12 -7 3 -13 0 -13 -5 0 -7 9 -9 21 -6 17 5 18 3 7 -10 -12 -15 -10
-15 17 -9 28 7 28 6 11 -7 -14 -11 -26 -12 -46 -4 -23 9 -29 20 -44 85 -10 41
-29 100 -43 131 -48 107 -73 174 -66 184 5 9 42 -29 43 -45z m122 -371 c7 -8
20 -12 28 -10 11 3 10 0 -2 -10 -26 -21 -22 -35 10 -31 24 4 24 3 -6 -9 -40
-15 -32 -28 12 -20 30 5 30 5 11 -10 -42 -34 -54 -23 -84 71 -8 25 -7 32 4 32
7 0 20 -6 27 -13z m43 -127 c4 -6 11 -8 16 -5 5 4 9 2 9 -3 0 -6 -7 -13 -16
-16 -23 -9 -24 -8 -17 10 5 14 3 15 -15 5 -18 -10 -21 -9 -16 4 7 17 30 20 39
5z m35 -40 c0 -5 -5 -10 -11 -10 -5 0 -7 5 -4 10 3 6 8 10 11 10 2 0 4 -4 4
-10z m-80 -30 c0 -5 -8 -10 -17 -10 -15 0 -16 2 -3 10 19 12 20 12 20 0z m20
-59 c0 -6 -4 -13 -10 -16 -5 -3 -10 1 -10 9 0 9 5 16 10 16 6 0 10 -4 10 -9z
m127 -27 c-3 -3 -12 -4 -19 -1 -8 3 -5 6 6 6 11 1 17 -2 13 -5z m-113 -35 c-3
-5 -1 -16 5 -23 9 -11 6 -15 -12 -18 -17 -3 -23 0 -24 14 -1 11 3 16 9 12 7
-4 8 -2 4 4 -9 15 2 34 15 26 5 -3 7 -10 3 -15z m-69 -64 c-11 -8 -28 -22 -37
-31 -9 -9 -24 -14 -33 -10 -24 9 -1 44 32 49 54 8 59 7 38 -8z m-678 -77 c-2
-13 -4 -5 -4 17 -1 22 1 32 4 23 2 -10 2 -28 0 -40z m885 -100 c-7 -7 -12 -8
-12 -2 0 14 12 26 19 19 2 -3 -1 -11 -7 -17z m-875 -35 c-3 -10 -5 -2 -5 17 0
19 2 27 5 18 2 -10 2 -26 0 -35z m893 7 c0 -5 -2 -10 -4 -10 -3 0 -8 5 -11 10
-3 6 -1 10 4 10 6 0 11 -4 11 -10z m23 -65 c9 -24 12 -47 8 -49 -4 -3 -8 0 -8
7 0 7 -8 29 -17 50 -9 20 -12 37 -7 37 5 0 16 -20 24 -45z m-3886 19 c-3 -3
-12 -4 -19 -1 -8 3 -5 6 6 6 11 1 17 -2 13 -5z m3909 -90 c-3 -8 1 -31 9 -51
8 -19 15 -45 14 -57 0 -11 -9 5 -19 38 -16 52 -18 86 -3 86 3 0 2 -7 -1 -16z
m-73 -7 c3 -8 -1 -14 -9 -14 -8 0 -14 6 -14 14 0 7 4 13 9 13 5 0 11 -6 14
-13z m-65 -3 c28 -8 28 -21 2 -29 -16 -5 -19 -12 -14 -28 4 -12 12 -25 19 -29
9 -5 11 -21 8 -47 -3 -23 2 -64 11 -98 10 -32 20 -69 24 -82 4 -15 16 -25 31
-28 35 -5 39 -13 8 -13 -19 0 -25 -4 -21 -15 8 -20 -13 -45 -38 -45 -10 0 -17
-4 -13 -9 3 -5 0 -13 -6 -17 -7 -4 -9 -3 -5 4 3 5 2 12 -3 14 -8 3 -73 232
-91 322 -15 76 22 117 88 100z m-2418 -19 c11 -13 10 -14 -4 -9 -9 3 -16 10
-16 15 0 13 6 11 20 -6z m1609 -48 c-1 -89 -18 -102 -18 -14 -1 50 3 76 9 72
6 -3 10 -30 9 -58z m-2806 36 c-7 -2 -19 -2 -25 0 -7 3 -2 5 12 5 14 0 19 -2
13 -5z m-1819 -162 c7 -11 -41 -24 -55 -16 -5 4 -7 11 -4 16 8 12 52 12 59 0z
m1349 -6 c1 -5 -6 -11 -15 -13 -11 -2 -18 3 -18 13 0 17 30 18 33 0z m3365
-63 c10 -14 8 -18 -14 -30 -14 -7 -32 -11 -39 -8 -8 3 -16 0 -19 -7 -3 -7 -3
-2 0 11 4 15 1 22 -6 20 -7 -2 -15 3 -18 11 -2 8 0 11 6 7 5 -3 13 1 16 10 8
20 55 11 74 -14z m-4688 8 c0 -5 -2 -10 -4 -10 -3 0 -8 5 -11 10 -3 6 -1 10 4
10 6 0 11 -4 11 -10z m5570 -40 c0 -5 -5 -10 -11 -10 -5 0 -7 5 -4 10 3 6 8
10 11 10 2 0 4 -4 4 -10z m-5749 -27 c1 -51 33 -116 68 -140 19 -13 29 -23 24
-23 -19 0 -63 42 -84 78 -15 27 -19 30 -14 12 3 -14 9 -40 12 -58 8 -44 62
-102 96 -102 53 0 44 -21 -28 -69 -27 -18 -43 -26 -36 -17 11 14 11 16 -3 16
-9 0 -16 5 -16 11 0 6 -9 8 -20 4 -13 -4 -22 -1 -26 9 -3 9 -12 12 -21 9 -13
-5 -15 -2 -10 16 5 19 2 21 -16 15 -19 -6 -20 -5 -8 10 12 14 11 16 -4 16 -14
0 -15 3 -5 15 8 10 9 19 3 28 -8 10 -9 32 -2 97 4 30 60 100 81 100 4 0 8 -12
9 -27z m5713 11 c9 -22 -3 -32 -14 -14 -12 19 -12 30 -1 30 5 0 12 -7 15 -16z
m32 -140 c-4 -12 -1 -14 14 -9 11 4 20 4 20 0 0 -7 -149 -75 -166 -75 -17 0
-31 43 -15 48 6 2 9 8 5 13 -3 5 7 4 21 -1 33 -13 71 -13 40 0 -19 7 -18 9 8
19 34 13 47 14 27 1 -8 -5 -11 -12 -7 -17 10 -10 43 12 40 26 -2 6 2 11 8 11
6 0 8 -7 5 -16z m-106 -4 c0 -5 -4 -10 -10 -10 -5 0 -10 5 -10 10 0 6 5 10 10
10 6 0 10 -4 10 -10z m-5900 -54 c0 -2 -7 -7 -16 -10 -8 -3 -12 -2 -9 4 6 10
25 14 25 6z m5846 -21 c3 -19 -26 -55 -45 -55 -12 0 -25 56 -16 70 12 19 58 7
61 -15z m-5821 -4 c-11 -18 -96 -71 -113 -71 -9 1 1 10 23 22 22 11 51 29 64
39 26 21 35 24 26 10z m6005 -1 c0 -5 -5 -10 -11 -10 -5 0 -7 5 -4 10 3 6 8
10 11 10 2 0 4 -4 4 -10z m-40 -13 c0 -13 -64 -47 -88 -47 -30 0 -19 22 20 39
52 23 68 25 68 8z m-5985 -77 c-3 -5 -12 -10 -18 -10 -7 0 -6 4 3 10 19 12 23
12 15 0z m2954 -285 c35 -17 95 -79 82 -83 -5 -2 -24 4 -41 13 -43 22 -47 13
-15 -29 32 -41 29 -43 -22 -16 -21 11 -33 20 -28 20 6 0 -25 16 -67 37 -43 20
-75 40 -72 44 2 5 12 5 22 2 15 -6 15 -4 4 9 -11 14 -10 17 10 21 34 7 96 -1
127 -18z m813 11 c7 4 8 2 4 -5 -9 -13 -26 -5 -25 12 0 9 2 8 6 -1 2 -6 10 -9
15 -6z m2145 -28 c-9 -6 -9 -8 1 -8 7 0 10 -4 7 -10 -13 -21 -35 -10 -35 18 0
37 11 48 27 26 10 -14 10 -19 0 -26z m-5413 -7 c3 -4 -6 -13 -19 -19 -29 -13
-44 2 -18 17 22 13 30 13 37 2z m5231 -139 c8 -61 32 -96 57 -87 14 5 15 11 8
25 -7 13 -7 21 0 25 5 3 11 -3 11 -14 2 -37 4 -40 23 -54 20 -15 15 -37 -9
-37 -7 0 -21 7 -29 16 -15 14 -16 13 -16 -16 0 -24 4 -31 15 -26 18 7 19 -1 2
-18 -16 -17 -253 -196 -291 -221 l-27 -18 5 28 c3 15 56 131 118 257 119 241
119 241 133 140z m-2538 38 c3 -11 9 -17 14 -14 5 3 14 -7 19 -22 19 -50 4
-48 -28 4 -17 29 -27 52 -21 52 6 0 13 -9 16 -20z m155 -35 c29 -14 57 -54 62
-90 2 -16 1 -24 -1 -17 -2 6 -11 12 -19 12 -11 0 -13 6 -9 21 5 14 3 19 -3 15
-15 -9 -51 24 -45 40 3 8 -2 14 -11 14 -9 0 -16 6 -16 13 0 19 14 31 18 15 1
-7 12 -18 24 -23z m2564 -22 c4 -27 8 -52 9 -58 0 -5 3 -12 7 -15 4 -3 9 -30
11 -60 3 -30 3 -45 0 -32 -2 12 -8 20 -13 17 -4 -3 -6 4 -3 15 4 14 1 20 -7
18 -8 -2 -20 19 -30 52 -14 48 -15 58 -3 69 20 18 7 27 -14 10 -15 -12 -16
-12 -8 1 29 52 40 48 51 -17z m-2893 -11 c21 -18 22 -32 2 -32 -8 0 -15 4 -15
8 0 4 -15 12 -32 17 -22 7 -33 16 -32 28 1 9 -2 17 -7 17 -5 0 -9 5 -9 11 0
11 59 -21 93 -49z m-388 -33 c5 -5 17 -9 26 -9 10 0 20 -4 23 -9 3 -4 -8 -8
-23 -7 -16 1 -27 4 -25 8 2 3 -10 11 -26 17 -17 5 -30 13 -30 16 0 8 42 -4 55
-16z m413 -96 c14 -26 15 -33 3 -33 -8 0 -41 60 -41 75 0 10 25 -18 38 -42z
m159 21 c-3 -3 -12 -4 -19 -1 -8 3 -5 6 6 6 11 1 17 -2 13 -5z m-2942 -14 c-3
-5 -12 -10 -18 -10 -7 0 -6 4 3 10 19 12 23 12 15 0z m1653 -36 c26 -18 31
-60 6 -50 -8 3 -12 2 -9 -4 3 -6 0 -10 -8 -10 -10 0 -13 -7 -10 -20 6 -23 -15
-27 -49 -9 -24 13 -39 2 -18 -12 9 -6 11 -12 5 -15 -44 -19 -60 -32 -60 -49 0
-11 -6 -19 -13 -17 -25 5 -50 -17 -45 -38 4 -15 0 -20 -14 -20 -11 0 -28 -7
-39 -15 -28 -21 -71 -19 -84 5 -9 17 -8 20 12 17 17 -1 24 4 26 21 2 12 9 22
17 22 7 0 15 4 17 8 6 15 66 52 85 52 13 0 15 -2 5 -9 -11 -7 -11 -9 2 -14 13
-5 15 0 13 25 -2 26 2 33 23 38 14 3 27 14 29 25 6 31 29 48 59 41 18 -5 22
-4 13 3 -14 9 -9 41 6 41 5 0 19 -7 31 -16z m1403 -41 l24 -26 -32 23 c-34 25
-39 30 -25 30 5 0 19 -12 33 -27z m-2152 -19 c2 -2 2 -7 -2 -10 -3 -3 -16 2
-29 11 l-23 17 25 -7 c14 -4 27 -9 29 -11z m1665 -4 c14 0 17 -3 10 -10 -14
-14 -41 -3 -49 18 -5 14 -4 15 6 5 7 -7 22 -13 33 -13z m196 -7 c0 -9 3 -14 6
-10 7 6 64 -52 64 -65 0 -12 -4 -10 -42 25 -36 33 -55 67 -38 67 6 0 10 -7 10
-17z m2744 -90 c-16 -13 -40 -34 -53 -46 -13 -12 -27 -21 -30 -19 -3 2 -9 -5
-13 -15 -4 -10 -5 0 -1 22 6 41 47 103 86 130 21 15 22 14 31 -16 9 -29 7 -34
-20 -56z m-2889 67 c3 -6 -4 -10 -17 -10 -18 0 -20 2 -8 10 19 12 18 12 25 0z
m-1885 -50 c0 -5 7 -10 15 -10 8 0 15 -4 15 -10 0 -5 -11 -10 -24 -10 -14 0
-28 5 -31 10 -7 12 2 30 16 30 5 0 9 -4 9 -10z m-40 -10 c0 -12 -8 -12 -35 0
-18 8 -17 9 8 9 15 1 27 -3 27 -9z m4702 -65 c-2 -19 -8 -35 -12 -35 -5 0 -6
-10 -3 -22 4 -23 4 -23 -11 -3 -8 11 -20 26 -27 33 -8 10 -4 19 18 38 37 31
40 31 35 -11z m167 -30 c1 -9 -58 -55 -71 -55 -3 0 -9 7 -12 15 -4 10 8 29 31
52 33 34 37 35 44 18 4 -11 8 -24 8 -30z m-5619 5 c0 -5 -5 -10 -11 -10 -5 0
-7 5 -4 10 3 6 8 10 11 10 2 0 4 -4 4 -10z m374 -15 c8 -8 19 -15 24 -15 6 0
12 -3 14 -7 6 -14 81 -50 143 -69 33 -10 88 -19 122 -19 35 0 63 -3 63 -6 0
-3 19 -5 43 -4 23 1 52 -2 65 -7 16 -5 24 -4 28 6 4 9 21 13 57 11 29 -2 69 4
90 12 20 9 46 13 58 10 16 -4 19 -2 14 14 -7 21 5 25 22 8 7 -7 17 -7 29 -1
11 6 27 13 37 16 10 3 15 10 12 16 -4 7 2 7 20 0 20 -8 27 -7 31 5 4 8 14 15
23 15 10 0 21 3 25 7 14 14 41 11 68 -8 28 -20 38 -49 18 -49 -6 0 -22 -11
-36 -25 -14 -14 -30 -22 -36 -19 -6 4 -8 3 -5 -3 4 -6 -11 -15 -33 -22 -22 -6
-40 -15 -40 -20 0 -15 -178 -84 -197 -77 -9 4 -22 1 -29 -5 -9 -7 -56 -12
-124 -12 -91 0 -112 -3 -120 -16 -6 -10 -10 -11 -10 -3 0 21 -40 14 -40 -8 0
-11 -4 -20 -10 -20 -5 0 -10 5 -10 10 0 6 -6 10 -13 10 -15 0 -79 29 -87 40
-3 4 -29 20 -59 36 -29 15 -56 34 -58 41 -3 7 -11 13 -19 13 -8 0 -19 9 -26
20 -7 11 -18 20 -25 20 -7 0 -13 7 -13 15 0 8 -6 15 -12 15 -12 0 -48 60 -48
80 0 15 27 12 44 -5z m-342 -17 c-7 -7 -12 -8 -12 -2 0 14 12 26 19 19 2 -3
-1 -11 -7 -17z m5328 9 c0 -7 9 -30 20 -52 25 -48 25 -52 0 -93 l-20 -32 -46
35 c-25 19 -50 35 -55 35 -14 0 -10 32 6 53 16 22 75 67 87 67 4 0 8 -6 8 -13z
m247 -65 c-23 -24 -24 -28 -10 -28 36 2 17 -20 -37 -41 -30 -13 -59 -23 -65
-22 -5 0 -5 3 1 5 7 3 10 13 7 23 -3 13 6 22 34 35 21 9 49 26 63 36 36 28 38
25 7 -8z m-5547 -32 c0 -5 -5 -10 -11 -10 -5 0 -7 5 -4 10 3 6 8 10 11 10 2 0
4 -4 4 -10z m-2126 -51 c-3 -5 -10 -7 -15 -3 -5 3 -7 10 -3 15 3 5 10 7 15 3
5 -3 7 -10 3 -15z m7312 -93 c0 -28 -6 -51 -13 -53 -15 -5 -27 74 -18 118 l7
33 13 -25 c7 -13 12 -46 11 -73z m-7251 44 c5 8 12 5 22 -10 13 -19 12 -24 -6
-56 -26 -43 -104 -143 -112 -143 -11 -1 -19 41 -19 102 0 65 22 97 65 97 14 0
25 6 25 13 0 9 3 8 9 -2 6 -10 10 -10 16 -1z m59 -16 c4 -15 5 -29 1 -32 -3
-3 -5 2 -5 10 0 9 -7 18 -15 22 -19 7 -20 26 -1 26 8 0 17 -12 20 -26z m6096
6 c0 -5 12 -10 26 -10 14 0 39 -11 55 -24 15 -13 33 -26 39 -28 6 -2 8 -11 4
-21 -6 -17 -8 -16 -41 3 -19 11 -43 20 -53 20 -20 0 -64 53 -53 64 10 9 23 7
23 -4z m1037 -40 c-3 -11 -1 -20 4 -20 5 0 9 -8 9 -17 0 -14 -2 -15 -9 -4 -7
11 -9 11 -13 0 -3 -8 -8 -11 -11 -8 -4 3 -1 20 5 37 14 36 23 43 15 12z m118
10 c3 -5 -1 -10 -10 -10 -9 0 -13 5 -10 10 3 6 8 10 10 10 2 0 7 -4 10 -10z
m-8 -39 c-10 -12 -9 -14 6 -8 9 3 17 2 17 -3 0 -18 -38 -10 -42 8 -4 12 1 18
13 18 14 0 16 -3 6 -15z m-7359 -125 c-7 -8 -15 -12 -17 -11 -5 6 10 25 20 25
5 0 4 -6 -3 -14z m2122 -54 c0 -4 -29 -35 -65 -70 -36 -34 -65 -66 -65 -71 0
-14 -34 -71 -42 -71 -5 0 -8 -6 -8 -14 0 -11 -5 -12 -24 -3 -17 8 -21 14 -13
20 9 6 9 10 0 14 -22 8 -14 25 9 18 16 -6 20 -4 15 7 -3 9 7 25 25 39 16 13
56 50 89 82 56 53 79 68 79 49z m-1790 -129 c0 -23 -4 -33 -9 -27 -9 8 -4 64
5 64 2 0 4 -17 4 -37z m-100 -29 c13 -33 13 -34 -4 -34 -20 0 -39 27 -32 45 8
23 25 18 36 -11z m465 -35 c4 -6 13 -8 21 -5 17 6 17 1 4 -25 -7 -12 -21 -19
-40 -19 -24 0 -29 4 -27 23 2 32 29 49 42 26z m-215 -13 c0 -3 -4 -8 -10 -11
-5 -3 -10 -1 -10 4 0 6 5 11 10 11 6 0 10 -2 10 -4z m378 -96 c14 0 23 -3 19
-6 -3 -3 -30 -3 -59 2 -47 7 -50 8 -23 14 17 3 32 2 33 -2 2 -4 15 -8 30 -8z
m289 -22 c-3 -8 -6 -5 -6 6 -1 11 2 17 5 13 3 -3 4 -12 1 -19z m-605 -13 c0
-5 -5 -11 -11 -13 -6 -2 -11 4 -11 13 0 9 5 15 11 13 6 -2 11 -8 11 -13z m638
-65 c0 -5 -4 -10 -10 -10 -5 0 -10 5 -10 10 0 6 5 10 10 10 6 0 10 -4 10 -10z
m4280 -40 c14 -4 43 -17 65 -29 22 -11 45 -21 51 -21 12 0 95 -61 134 -99 14
-13 0 -7 -30 15 -30 21 -57 42 -58 46 -2 5 -9 5 -14 2 -7 -5 -8 -2 -3 6 6 9 1
10 -16 5 -20 -5 -21 -4 -9 5 12 10 11 11 -8 7 -14 -3 -20 -1 -15 6 4 6 0 8 -9
4 -9 -3 -20 -1 -26 5 -5 5 -36 23 -69 40 -32 16 -49 26 -38 22 11 -3 31 -9 45
-14z m-2775 -171 c11 -16 1 -19 -13 -3 -7 8 -8 14 -3 14 5 0 13 -5 16 -11z
m-25 -48 c0 -21 -16 -2 -24 29 -7 24 -6 24 8 6 9 -11 16 -27 16 -35z m218 -10
c19 -11 42 -96 42 -152 0 -40 -3 -47 -15 -42 -19 7 -59 84 -70 130 -12 57 8
87 43 64z m282 -11 c21 -11 36 -61 39 -123 1 -25 -2 -36 -9 -32 -7 5 -9 -2 -4
-21 6 -24 5 -26 -8 -14 -15 15 -17 19 -21 60 -1 14 -5 30 -8 35 -14 23 -30 85
-24 95 8 13 12 13 35 0z m-710 -20 c0 -5 -8 -10 -17 -10 -15 0 -16 2 -3 10 19
12 20 12 20 0z m27 -22 c-3 -8 -6 -5 -6 6 -1 11 2 17 5 13 3 -3 4 -12 1 -19z
m41 -40 c16 -21 45 -136 38 -154 -5 -14 -13 -10 -45 23 -56 57 -69 143 -23
143 11 0 24 -6 30 -12z m1470 -165 c-2 -10 -13 -19 -26 -21 -12 -2 -22 -6 -22
-9 0 -9 41 -207 46 -227 4 -12 2 -16 -5 -12 -13 8 -71 187 -71 220 0 15 11 33
26 45 33 26 57 27 52 4z m-185 0 c-7 -2 -13 -11 -13 -18 0 -8 -9 -19 -21 -25
-12 -7 -18 -18 -15 -26 3 -8 2 -13 -3 -10 -12 8 -48 -38 -43 -54 4 -12 2 -12
-8 -3 -29 27 49 144 94 142 12 0 15 -3 9 -6z m-3609 -92 c3 -5 -4 -11 -15 -14
-12 -3 -18 -10 -15 -16 9 -13 -13 -26 -25 -14 -13 13 -1 41 19 46 28 8 31 7
36 -2z m9 -56 c7 -18 -6 -27 -26 -19 -18 7 -11 34 8 34 7 0 15 -7 18 -15z
m2284 -21 c-3 -3 -12 -4 -19 -1 -8 3 -5 6 6 6 11 1 17 -2 13 -5z m3288 -18
c-64 -29 -179 -122 -274 -220 -40 -42 -77 -73 -82 -70 -35 22 45 146 143 222
65 50 165 91 223 91 l40 0 -50 -23z m-5511 -26 c14 -5 26 -14 26 -20 0 -11
-59 -14 -85 -3 -15 5 -14 8 6 19 29 16 23 16 53 4z m3803 -62 c-2 -13 -4 -3
-4 22 0 25 2 35 4 23 2 -13 2 -33 0 -45z m-3806 8 c21 -7 43 -9 51 -5 8 4 33
7 55 6 40 -1 40 -2 31 -29 -6 -15 -14 -31 -19 -34 -17 -10 -219 48 -219 63 0
17 52 17 101 -1z m5409 -76 l35 0 -45 -21 c-48 -22 -114 -68 -107 -75 10 -10
103 19 123 37 18 17 28 19 55 11 31 -8 32 -9 12 -16 -13 -4 -23 -12 -23 -17 0
-5 -7 -9 -15 -9 -8 0 -15 -3 -15 -7 0 -5 -21 -7 -47 -7 -55 2 -104 -13 -101
-30 3 -20 -13 -76 -23 -76 -5 0 -9 14 -9 30 0 17 5 30 11 30 8 0 8 4 0 14 -32
39 44 155 93 142 12 -3 37 -6 56 -6z m94 -25 c-6 -14 -44 -22 -44 -10 0 4 29
19 47 24 1 1 0 -6 -3 -14z m-4165 -29 c41 -38 -3 -44 -99 -14 -19 6 -41 12
-48 14 -7 2 -10 9 -6 15 11 18 129 6 153 -15z m4211 20 c0 -2 -7 -6 -15 -10
-8 -3 -15 -1 -15 4 0 6 7 10 15 10 8 0 15 -2 15 -4z m-5230 -27 c0 -5 -6 -7
-12 -4 -15 8 12 -14 39 -32 10 -7 -1 -5 -24 4 -28 10 -40 20 -36 29 6 16 33
19 33 3z m5284 -14 c-4 -8 -18 -15 -33 -15 l-26 1 30 14 c17 7 31 14 32 14 1
1 0 -6 -3 -14z m-2049 -25 c3 -5 15 -10 26 -10 10 0 19 -4 19 -10 0 -6 29 -10
68 -10 37 -1 89 -7 116 -14 l50 -13 -56 -6 c-39 -4 -75 0 -124 15 -38 10 -91
23 -118 28 -66 12 -83 30 -29 30 23 0 45 -4 48 -10z m1985 0 c13 -9 13 -11 0
-20 -25 -16 -78 -29 -100 -23 -25 7 -16 23 13 23 12 0 31 7 41 15 23 18 26 18
46 5z m-1657 -57 c-7 -2 -19 -2 -25 0 -7 3 -2 5 12 5 14 0 19 -2 13 -5z m854
1 c-3 -3 -12 -4 -19 -1 -8 3 -5 6 6 6 11 1 17 -2 13 -5z m433 -43 c-21 -7 -15
-9 32 -16 65 -8 64 -1 28 -115 -16 -49 -18 -52 -19 -22 -1 33 -21 47 -21 15 0
-10 -4 -14 -8 -8 -9 13 -49 35 -62 35 -5 0 -10 -7 -10 -16 0 -12 -7 -10 -30
10 -22 18 -39 24 -58 20 -30 -5 -53 19 -65 68 l-7 27 82 4 c156 6 166 6 138
-2z m370 -34 c0 -4 -7 -22 -16 -40 -31 -60 -72 -92 -59 -44 6 21 6 21 -9 3 -9
-11 -16 -23 -16 -27 0 -4 -8 -5 -19 -2 -13 3 -17 11 -14 24 8 28 -11 23 -27
-6 -14 -27 -39 -26 -71 1 -22 19 -32 17 -26 -5 2 -10 1 -25 -4 -32 -5 -9 -9
14 -9 58 0 39 5 73 10 75 22 7 260 3 260 -5z m-480 -137 c18 -16 19 -20 7 -20
-9 0 -21 9 -27 20 -6 11 -9 20 -7 20 2 0 14 -9 27 -20z m-112 -10 c35 0 52 -4
56 -15 4 -12 -4 -15 -42 -15 -36 1 -54 7 -77 26 -20 17 -23 22 -8 15 12 -6 44
-11 71 -11z"/>
<path d="M7660 4830 c0 -5 5 -10 11 -10 5 0 7 5 4 10 -3 6 -8 10 -11 10 -2 0
-4 -4 -4 -10z"/>
<path d="M7858 3554 c-38 -20 -36 -28 2 -9 17 9 30 18 30 20 0 7 -1 6 -32 -11z"/>
<path d="M7482 2753 c-6 -20 -10 -38 -8 -40 5 -5 76 59 76 68 0 4 -9 7 -20 6
-11 -1 -20 -6 -20 -12 0 -5 -4 -4 -8 3 -6 8 -12 0 -20 -25z"/>
<path d="M7810 3001 c0 -6 5 -13 10 -16 6 -3 10 1 10 9 0 9 -4 16 -10 16 -5 0
-10 -4 -10 -9z"/>
<path d="M6560 7729 c0 -5 5 -7 10 -4 6 3 10 8 10 11 0 2 -4 4 -10 4 -5 0 -10
-5 -10 -11z"/>
<path d="M5950 7680 c-8 -5 -10 -10 -5 -10 6 0 17 5 25 10 8 5 11 10 5 10 -5
0 -17 -5 -25 -10z"/>
<path d="M4291 7416 c-1 -24 -3 -27 -17 -16 -13 11 -16 10 -21 -8 -6 -25 -14
-27 -30 -11 -9 9 -15 1 -24 -30 -7 -24 -17 -40 -24 -37 -7 2 -21 -17 -32 -44
l-20 -48 21 -9 c14 -7 39 -6 76 3 67 16 130 17 165 4 14 -5 50 -12 79 -15 l53
-6 7 32 c9 46 7 71 -4 64 -5 -3 -11 2 -12 12 -1 10 -2 25 -4 33 -1 8 -2 21 -3
29 -1 9 -12 0 -27 -20 -24 -32 -25 -33 -23 -9 4 44 -1 71 -11 65 -5 -3 -10 -1
-10 4 0 8 -7 7 -20 -1 -16 -11 -22 -9 -33 7 -14 18 -15 18 -26 -3 -17 -32 -49
-29 -54 6 l-4 27 -2 -29z"/>
<path d="M6967 7193 c-12 -11 -8 -23 8 -23 8 0 15 -4 15 -10 0 -5 8 -10 17
-10 13 0 14 3 5 12 -8 8 -9 15 -1 25 9 10 6 13 -13 13 -14 0 -28 -3 -31 -7z"/>
<path d="M4110 6975 c-7 -8 -16 -12 -21 -9 -5 3 -8 0 -7 -8 2 -7 -3 -12 -11
-10 -12 3 -12 1 -1 -14 11 -13 15 -13 18 -3 3 8 14 24 25 37 11 12 18 22 15
22 -3 0 -11 -7 -18 -15z"/>
<path d="M7957 6955 c11 -32 30 -47 37 -30 3 8 0 15 -6 15 -6 0 -17 8 -24 18
-13 16 -14 16 -7 -3z"/>
<path d="M3775 6940 c-10 -11 -16 -22 -13 -25 3 -3 13 4 23 15 10 11 16 22 13
25 -3 3 -13 -4 -23 -15z"/>
<path d="M4342 6924 c-7 -8 -12 -20 -9 -27 2 -7 9 -2 16 11 15 28 11 36 -7 16z"/>
<path d="M4876 6827 c3 -10 9 -15 12 -12 3 3 0 11 -7 18 -10 9 -11 8 -5 -6z"/>
<path d="M3660 6805 l-23 -24 32 12 c31 11 38 21 22 31 -4 3 -18 -6 -31 -19z"/>
<path d="M3604 6732 c-12 -9 -27 -27 -33 -39 -6 -13 -17 -22 -23 -20 -7 1 -15
-14 -18 -33 -3 -19 -13 -46 -22 -60 -9 -14 -18 -43 -22 -65 -4 -33 -2 -43 14
-53 18 -11 20 -10 20 22 0 24 7 39 20 49 15 11 19 21 14 43 -4 22 0 34 15 48
13 12 19 26 15 40 -3 15 3 28 20 44 15 12 26 26 26 32 0 13 -1 13 -26 -8z"/>
<path d="M3415 6440 c-3 -6 1 -7 9 -4 18 7 21 14 7 14 -6 0 -13 -4 -16 -10z"/>
<path d="M3365 6388 c-27 -15 -107 -99 -101 -106 3 -3 15 7 26 21 11 14 29 28
38 32 10 3 28 19 40 35 25 33 25 34 -3 18z"/>
<path d="M2714 6354 c-18 -14 -18 -15 4 -4 12 6 22 13 22 15 0 8 -5 6 -26 -11z"/>
<path d="M2638 6263 c-27 -30 -49 -81 -29 -69 6 4 11 12 11 18 0 6 11 26 26
45 30 40 27 43 -8 6z"/>
<path d="M3240 6249 c-18 -33 -6 -42 13 -9 10 16 14 30 8 30 -6 0 -15 -9 -21
-21z"/>
<path d="M2386 6234 c-5 -14 -4 -15 9 -4 17 14 19 20 6 20 -5 0 -12 -7 -15
-16z"/>
<path d="M6702 6060 c0 -14 2 -19 5 -12 2 6 2 18 0 25 -3 6 -5 1 -5 -13z"/>
<path d="M7420 5652 c0 -11 8 -27 19 -36 17 -16 19 -16 24 4 4 15 1 20 -11 18
-11 -2 -16 3 -16 15 1 9 -2 17 -7 17 -5 0 -9 -8 -9 -18z"/>
<path d="M1142 5620 c0 -14 2 -19 5 -12 2 6 2 18 0 25 -3 6 -5 1 -5 -13z"/>
<path d="M1121 5604 c0 -11 3 -14 6 -6 3 7 2 16 -1 19 -3 4 -6 -2 -5 -13z"/>
<path d="M1087 5424 c3 -8 -1 -14 -11 -14 -9 0 -16 -8 -17 -17 -1 -32 -6 -48
-29 -94 -12 -24 -37 -88 -55 -143 -18 -54 -43 -109 -55 -121 -26 -28 -45 -103
-60 -231 -9 -84 -35 -207 -47 -228 -8 -12 -21 12 -34 59 -10 39 -34 75 -49 75
-4 0 -10 -14 -14 -31 -8 -44 -25 -33 -64 42 -19 35 -46 78 -62 94 -15 17 -33
40 -39 53 -7 12 -16 20 -21 17 -6 -4 -3 -17 6 -31 9 -13 12 -24 6 -24 -6 0
-12 6 -15 13 -2 6 -7 9 -11 6 -7 -7 24 -70 48 -99 7 -8 16 -23 19 -33 4 -10
12 -15 18 -12 10 7 38 -21 39 -39 0 -6 -7 -1 -15 10 -12 16 -14 17 -15 2 0 -9
11 -30 24 -46 45 -52 68 -129 67 -214 -2 -61 1 -77 11 -73 8 3 21 0 29 -7 15
-12 15 -22 3 -103 -8 -49 -17 -97 -20 -105 -4 -8 -6 -21 -5 -27 1 -7 -2 -13
-7 -13 -5 0 -8 -12 -6 -27 4 -28 4 -27 -6 2 -6 17 -8 45 -5 63 3 17 2 32 -2
32 -9 0 -54 -265 -53 -315 l0 -29 16 23 17 24 19 -39 c18 -38 18 -44 3 -164
-9 -69 -20 -143 -25 -165 -11 -49 -7 -56 10 -15 8 18 18 29 26 26 7 -3 15 0
18 7 7 16 -3 -134 -14 -203 -12 -76 -15 -134 -7 -146 3 -6 17 -9 31 -7 25 5
72 -30 61 -46 -8 -13 -56 -6 -66 10 -6 10 -11 11 -19 3 -9 -9 -6 -16 10 -27
13 -9 20 -23 18 -34 -5 -24 12 -41 34 -35 10 2 18 -1 18 -7 0 -6 -8 -11 -17
-11 -21 0 28 -53 70 -76 27 -15 53 -11 32 4 -11 8 -45 69 -45 82 0 12 37 19
48 8 5 -5 14 -3 22 7 15 18 40 20 40 3 0 -22 -17 -41 -29 -34 -6 4 -11 2 -11
-3 0 -12 49 -15 66 -3 6 4 14 14 17 22 3 10 6 6 6 -9 2 -53 10 -10 20 104 6
66 18 197 26 290 8 94 17 181 20 195 3 14 25 207 50 430 25 223 54 477 66 565
35 274 35 283 5 343 -14 28 -26 59 -26 69 0 10 -10 43 -22 73 -19 48 -22 74
-23 202 0 105 -3 149 -12 152 -7 3 -10 -1 -6 -10z m-27 -655 c0 -30 -14 -39
-23 -15 -8 19 3 57 14 50 5 -3 9 -18 9 -35z m-140 -25 c0 -23 -20 -55 -31 -49
-10 7 -12 48 -2 58 12 13 33 7 33 -9z m-233 -736 c-3 -8 -6 -5 -6 6 -1 11 2
17 5 13 3 -3 4 -12 1 -19z m73 -315 c0 -5 -5 -15 -10 -23 -8 -12 -10 -11 -10
8 0 12 5 22 10 22 6 0 10 -3 10 -7z m-21 -107 c-6 -22 -17 -46 -25 -54 -13
-12 -14 -8 -8 30 8 53 23 83 35 71 5 -5 4 -25 -2 -47z m35 -383 c4 -9 2 -21
-3 -26 -12 -12 -51 9 -51 28 0 21 46 19 54 -2z m66 -234 c0 -5 -4 -9 -10 -9
-5 0 -10 7 -10 16 0 8 5 12 10 9 6 -3 10 -10 10 -16z"/>
<path d="M6831 5068 c-1 -39 13 -59 23 -32 4 9 4 19 1 22 -3 3 -6 -1 -6 -9 -1
-8 -5 2 -9 21 l-7 35 -2 -37z"/>
<path d="M365 5080 c-5 -9 10 -50 19 -50 2 0 6 9 9 19 3 14 1 18 -9 14 -10 -4
-12 0 -8 11 7 17 -1 22 -11 6z"/>
<path d="M407 5018 c4 -19 3 -20 -6 -8 -6 8 -11 11 -11 5 1 -17 39 -57 49 -51
5 3 14 -1 21 -9 7 -8 17 -12 22 -9 6 4 6 9 1 13 -5 3 -22 23 -37 44 -32 42
-46 48 -39 15z m33 -34 c0 -8 -4 -12 -10 -9 -5 3 -10 10 -10 16 0 5 5 9 10 9
6 0 10 -7 10 -16z"/>
<path d="M6828 5003 c7 -3 16 -2 19 1 4 3 -2 6 -13 5 -11 0 -14 -3 -6 -6z"/>
<path d="M440 4936 c0 -2 8 -10 18 -17 15 -13 16 -12 3 4 -13 16 -21 21 -21
13z"/>
<path d="M486 4923 c-10 -30 3 -56 20 -42 17 14 17 20 0 44 -13 18 -14 18 -20
-2z m24 -17 c0 -3 -4 -8 -10 -11 -5 -3 -10 -1 -10 4 0 6 5 11 10 11 6 0 10 -2
10 -4z"/>
<path d="M7391 4748 c-2 -37 108 -512 116 -504 3 2 -9 67 -26 143 -43 197 -51
235 -57 263 -9 45 -33 115 -33 98z"/>
<path d="M3600 4590 c0 -5 5 -10 11 -10 5 0 7 5 4 10 -3 6 -8 10 -11 10 -2 0
-4 -4 -4 -10z"/>
<path d="M3930 4400 c-18 -12 -2 -12 25 0 13 6 15 9 5 9 -8 0 -22 -4 -30 -9z"/>
<path d="M702 4265 c0 -16 2 -22 5 -12 2 9 2 23 0 30 -3 6 -5 -1 -5 -18z"/>
<path d="M692 4195 c0 -16 2 -22 5 -12 2 9 2 23 0 30 -3 6 -5 -1 -5 -18z"/>
<path d="M6762 4140 c0 -14 2 -19 5 -12 2 6 2 18 0 25 -3 6 -5 1 -5 -13z"/>
<path d="M4338 4053 c7 -3 16 -2 19 1 4 3 -2 6 -13 5 -11 0 -14 -3 -6 -6z"/>
<path d="M5060 4005 c52 -17 89 -20 75 -6 -6 6 -35 12 -65 16 l-55 5 45 -15z"/>
<path d="M5252 3972 c34 -29 83 -62 93 -62 17 0 -1 25 -42 55 -60 43 -100 49
-51 7z"/>
<path d="M5158 3983 c7 -3 16 -2 19 1 4 3 -2 6 -13 5 -11 0 -14 -3 -6 -6z"/>
<path d="M4701 3899 c-55 -11 -61 -16 -26 -25 32 -8 165 14 165 27 0 11 -79
10 -139 -2z"/>
<path d="M6910 3870 c0 -5 5 -10 11 -10 5 0 7 5 4 10 -3 6 -8 10 -11 10 -2 0
-4 -4 -4 -10z"/>
<path d="M2823 3771 c0 -11 5 -18 9 -15 4 3 5 11 1 19 -7 21 -12 19 -10 -4z"/>
<path d="M4873 3763 c3 -5 24 -18 47 -28 22 -10 40 -22 40 -27 0 -4 6 -8 14
-8 8 0 17 -7 20 -16 5 -13 1 -14 -27 -9 l-32 7 26 -21 c15 -11 53 -27 84 -36
32 -8 62 -19 69 -24 6 -4 22 -12 36 -15 19 -6 21 -5 10 3 -41 29 80 -3 125
-33 17 -11 47 -35 68 -53 20 -18 46 -33 56 -33 18 0 18 2 5 29 -16 32 -148
144 -185 157 -28 9 -22 8 -79 18 -58 11 -146 51 -131 60 6 4 8 12 5 18 -4 6
-1 8 7 5 8 -3 48 -13 89 -22 146 -33 160 -38 212 -77 29 -21 64 -42 78 -45 14
-3 28 -11 32 -17 5 -8 8 -7 8 2 0 7 -11 18 -25 24 -14 6 -25 17 -25 24 0 11
-20 24 -47 30 -6 1 -27 13 -45 26 -76 57 -102 63 -277 66 -97 2 -161 0 -158
-5z"/>
<path d="M2781 3674 c0 -11 3 -14 6 -6 3 7 2 16 -1 19 -3 4 -6 -2 -5 -13z"/>
<path d="M2800 3669 c0 -5 5 -7 10 -4 6 3 10 8 10 11 0 2 -4 4 -10 4 -5 0 -10
-5 -10 -11z"/>
<path d="M6554 3553 c2 -9 13 -25 27 -35 34 -29 38 -2 4 28 -33 29 -34 29 -31
7z"/>
<path d="M5540 3500 c0 -5 5 -10 11 -10 5 0 7 5 4 10 -3 6 -8 10 -11 10 -2 0
-4 -4 -4 -10z"/>
<path d="M3010 3230 c0 -5 5 -10 11 -10 5 0 7 5 4 10 -3 6 -8 10 -11 10 -2 0
-4 -4 -4 -10z"/>
<path d="M933 2949 c3 -8 11 -31 18 -51 13 -42 20 -46 39 -23 16 20 8 38 -31
65 -19 14 -30 18 -26 9z"/>
<path d="M880 2895 c25 -14 24 -16 -15 -19 -20 -1 -21 -4 -8 -68 7 -38 -14
-36 -48 5 -21 24 -28 28 -29 15 0 -10 -4 -18 -9 -18 -5 0 -9 -10 -9 -22 0 -20
6 -23 35 -23 26 0 40 -6 51 -24 16 -23 15 -23 -6 -17 -25 8 -31 -11 -7 -20 24
-9 46 15 39 42 -4 17 -2 24 9 24 19 0 41 -26 32 -40 -10 -16 20 -40 49 -40 25
0 26 2 26 59 0 53 -2 60 -22 67 -33 9 -51 26 -39 34 14 8 -35 60 -57 60 -13
-1 -10 -4 8 -15z"/>
<path d="M3110 2873 c8 -4 20 -13 26 -21 7 -10 13 -12 18 -4 7 12 -24 33 -46
31 -9 0 -8 -2 2 -6z"/>
<path d="M1967 2723 c-9 -2 -15 -9 -12 -14 9 -14 22 -11 29 6 3 8 4 14 3 14
-1 -1 -10 -3 -20 -6z"/>
<path d="M910 2625 c7 -8 10 -21 7 -29 -3 -8 5 -18 20 -25 31 -14 32 -13 40
33 l6 36 -43 0 c-36 0 -41 -2 -30 -15z"/>
<path d="M875 2590 c3 -5 8 -10 11 -10 2 0 4 5 4 10 0 6 -5 10 -11 10 -5 0 -7
-4 -4 -10z"/>
<path d="M6515 2550 c3 -5 8 -10 11 -10 2 0 4 5 4 10 0 6 -5 10 -11 10 -5 0
-7 -4 -4 -10z"/>
<path d="M1130 1880 c-8 -5 -26 -10 -40 -10 -14 0 -32 -5 -40 -10 -13 -9 -13
-11 0 -20 8 -5 25 -7 38 -3 17 4 21 2 16 -10 -3 -8 -1 -18 5 -22 7 -4 11 6 11
28 0 31 2 34 25 29 18 -3 25 0 25 12 0 18 -17 21 -40 6z"/>
<path d="M1270 1876 c0 -3 9 -10 20 -16 11 -6 20 -8 20 -6 0 3 -9 10 -20 16
-11 6 -20 8 -20 6z"/>
<path d="M1250 1832 c6 -13 14 -21 18 -18 3 4 -2 14 -12 24 -18 16 -18 16 -6
-6z"/>
<path d="M1430 1810 c13 -11 20 -23 17 -27 -4 -3 -15 1 -24 9 -35 29 -48 29
-17 0 26 -25 30 -32 19 -43 -10 -11 -9 -19 6 -43 l18 -29 5 24 c18 88 17 106
-10 117 -36 17 -40 15 -14 -8z"/>
<path d="M1356 1807 c3 -10 9 -15 12 -12 3 3 0 11 -7 18 -10 9 -11 8 -5 -6z"/>
<path d="M1534 1796 c28 -22 13 -31 -18 -11 -14 10 -26 13 -26 7 0 -6 9 -14
20 -17 20 -6 28 -25 11 -25 -5 0 -11 -10 -14 -21 -5 -17 1 -14 23 12 35 41 36
45 8 59 -22 11 -22 10 -4 -4z"/>
<path d="M1380 1784 c0 -7 27 -34 34 -34 13 0 5 16 -14 28 -11 7 -20 10 -20 6z"/>
<path d="M650 1731 c0 -4 -11 -6 -25 -3 -18 3 -27 -1 -32 -14 -3 -11 -11 -22
-16 -25 -5 -4 3 -9 18 -13 30 -8 55 -28 55 -45 0 -10 57 43 89 82 12 15 11 17
-12 17 -15 0 -35 -10 -47 -22 -22 -24 -26 -18 -10 13 8 15 7 19 -5 19 -8 0
-15 -4 -15 -9z"/>
<path d="M1574 1726 c-4 -11 0 -24 9 -34 15 -14 17 -14 23 2 4 11 0 24 -9 34
-15 14 -17 14 -23 -2z m26 -29 c0 -5 -4 -5 -10 -2 -5 3 -10 14 -10 23 0 15 2
15 10 2 5 -8 10 -19 10 -23z"/>
<path d="M1555 1679 c-4 -6 -5 -12 -2 -15 2 -3 7 2 10 11 7 17 1 20 -8 4z"/>
<path d="M772 1620 c0 -14 2 -19 5 -12 2 6 2 18 0 25 -3 6 -5 1 -5 -13z"/>
<path d="M1394 1629 c-3 -6 -2 -15 3 -20 5 -5 9 -1 9 11 0 23 -2 24 -12 9z"/>
<path d="M1172 1604 c-8 -8 -11 -21 -8 -29 6 -17 46 -15 46 2 0 7 -4 12 -9 11
-8 -3 -11 2 -11 17 0 2 11 0 25 -5 15 -6 26 -6 30 0 4 6 0 10 -7 10 -7 0 -22
2 -33 5 -11 3 -26 -2 -33 -11z"/>
<path d="M200 1200 c0 -5 5 -10 10 -10 6 0 10 5 10 10 0 6 -4 10 -10 10 -5 0
-10 -4 -10 -10z"/>
<path d="M1256 1155 c-3 -10 1 -18 12 -21 50 -17 72 -28 88 -45 24 -27 13 -32
-35 -15 -34 11 -41 12 -37 1 2 -7 -1 -21 -8 -30 -10 -13 -10 -24 -2 -42 11
-25 13 -25 96 -19 46 4 89 11 93 15 23 23 -57 107 -140 150 -50 25 -59 26 -67
6z"/>
<path d="M1085 1063 c-22 -15 -67 -33 -100 -39 -33 -7 -50 -12 -38 -13 12 -1
24 -5 27 -10 3 -5 16 -11 28 -14 13 -3 42 -10 65 -16 38 -10 43 -9 70 17 17
15 35 37 42 49 10 20 8 24 -18 38 -37 19 -29 20 -76 -12z"/>
<path d="M2590 1008 l-25 -10 22 -10 c12 -6 34 -7 48 -4 22 6 25 9 15 21 -14
17 -25 18 -60 3z"/>
<path d="M2867 974 c-13 -13 -7 -24 14 -24 11 0 19 5 17 12 -5 14 -22 21 -31
12z"/>
<path d="M2670 889 c-34 -18 -34 -19 -8 -17 15 1 25 4 23 7 -3 2 3 10 13 17
24 19 13 16 -28 -7z"/>
<path d="M2733 823 c-11 -7 -53 -17 -94 -21 l-74 -8 40 -18 c32 -14 59 -17
132 -14 105 4 132 17 77 37 -23 8 -34 18 -30 26 6 17 -24 16 -51 -2z"/>
<path d="M4090 819 c0 -5 5 -7 10 -4 6 3 10 8 10 11 0 2 -4 4 -10 4 -5 0 -10
-5 -10 -11z"/>
<path d="M4630 815 c-16 -19 -1 -19 24 0 16 12 17 15 4 15 -8 0 -21 -7 -28
-15z"/>
<path d="M4118 763 c6 -2 18 -2 25 0 6 3 1 5 -13 5 -14 0 -19 -2 -12 -5z"/>
<path d="M2460 730 c-11 -11 -22 -20 -25 -20 -3 0 -21 -10 -41 -22 -32 -19
-35 -23 -18 -29 18 -7 18 -8 -1 -9 -11 0 -55 -11 -99 -24 -73 -21 -76 -23 -46
-30 77 -15 487 -2 505 16 11 11 -45 88 -77 108 -42 25 -101 34 -130 20 -13 -7
-36 -24 -52 -39 l-29 -26 28 38 c29 39 19 51 -15 17z m-10 -69 c0 -12 -20 -25
-27 -18 -7 7 6 27 18 27 5 0 9 -4 9 -9z"/>
<path d="M3100 743 c-81 -15 -15 -40 118 -45 50 -2 92 -3 92 -2 0 1 -20 14
-44 28 -44 26 -96 31 -166 19z"/>
<path d="M3028 703 c7 -3 16 -2 19 1 4 3 -2 6 -13 5 -11 0 -14 -3 -6 -6z"/>
<path d="M2918 680 c-18 -13 -41 -20 -71 -20 -61 0 -68 -16 -12 -24 50 -8 149
0 213 16 31 8 42 16 42 29 0 16 -5 18 -27 12 -34 -10 -83 -9 -104 0 -9 5 -25
0 -41 -13z"/>
<path d="M5096 622 c-79 -9 -135 -20 -144 -28 -11 -12 -8 -14 24 -14 53 0 247
30 257 40 17 16 -10 16 -137 2z"/>
<path d="M3630 560 c20 -13 180 -13 180 0 0 6 -39 10 -97 10 -67 0 -93 -3 -83
-10z"/>
<path d="M4078 503 c7 -3 16 -2 19 1 4 3 -2 6 -13 5 -11 0 -14 -3 -6 -6z"/>
</g>
</svg>
